M48
; DRILL file {KiCad 5.1.2-f72e74a~84~ubuntu16.04.1} date Mon 21 Oct 2019 03:23:05 PM PDT
; FORMAT={-:-/ absolute / inch / decimal}
; #@! TF.CreationDate,2019-10-21T15:23:05-07:00
; #@! TF.GenerationSoftware,Kicad,Pcbnew,5.1.2-f72e74a~84~ubuntu16.04.1
; #@! TF.FileFunction,Plated,1,2,PTH
FMAT,2
INCH
T1C0.0200
T2C0.0394
T3C0.0472
T4C0.2660
%
G90
G05
T2
X9.45Y-7.5
X9.55Y-7.5
X9.45Y-8.5
X9.55Y-8.5
X7.45Y-7.5
X7.55Y-7.5
X11.45Y-8.5
X11.55Y-8.5
X9.45Y-6.5
X9.55Y-6.5
X6.45Y-11.5
X6.55Y-11.5
X4.45Y-10.5
X4.55Y-10.5
X8.45Y-7.5
X8.55Y-7.5
X7.45Y-3.5
X7.55Y-3.5
X11.45Y-3.5
X11.55Y-3.5
X8.45Y-9.5
X8.55Y-9.5
X9.45Y-9.5
X9.55Y-9.5
X5.45Y-3.5
X5.55Y-3.5
X3.45Y-5.5
X3.55Y-5.5
X8.45Y-6.5
X8.55Y-6.5
X5.45Y-2.5
X5.55Y-2.5
X11.45Y-4.5
X11.55Y-4.5
X2.45Y-11.5
X2.55Y-11.5
X10.45Y-8.5
X10.55Y-8.5
X11.45Y-11.5
X11.55Y-11.5
X6.45Y-2.5
X6.55Y-2.5
X5.45Y-6.5
X5.55Y-6.5
X2.45Y-9.5
X2.55Y-9.5
X9.45Y-4.5
X9.55Y-4.5
X6.45Y-6.5
X6.55Y-6.5
X11.45Y-5.5
X11.55Y-5.5
X4.45Y-9.5
X4.55Y-9.5
X4.45Y-4.5
X4.55Y-4.5
X3.45Y-9.5
X3.55Y-9.5
X3.45Y-8.5
X3.55Y-8.5
X4.45Y-6.5
X4.55Y-6.5
X5.45Y-5.5
X5.55Y-5.5
X8.45Y-11.5
X8.55Y-11.5
X2.45Y-10.5
X2.55Y-10.5
X8.45Y-4.5
X8.55Y-4.5
X11.45Y-6.5
X11.55Y-6.5
X3.45Y-4.5
X3.55Y-4.5
X8.45Y-10.5
X8.55Y-10.5
X5.45Y-7.5
X5.55Y-7.5
X2.45Y-6.5
X2.55Y-6.5
X6.45Y-4.5
X6.55Y-4.5
X8.45Y-8.5
X8.55Y-8.5
X4.45Y-8.5
X4.55Y-8.5
X2.45Y-3.5
X2.55Y-3.5
X9.45Y-11.5
X9.55Y-11.5
X6.45Y-9.5
X6.55Y-9.5
X10.45Y-2.5
X10.55Y-2.5
X3.45Y-10.5
X3.55Y-10.5
X6.45Y-3.5
X6.55Y-3.5
X6.45Y-8.5
X6.55Y-8.5
X4.45Y-2.5
X4.55Y-2.5
X11.45Y-2.5
X11.55Y-2.5
X3.45Y-6.5
X3.55Y-6.5
X10.45Y-7.5
X10.55Y-7.5
X10.45Y-3.5
X10.55Y-3.5
X2.45Y-2.5
X2.55Y-2.5
X11.45Y-9.5
X11.55Y-9.5
X10.45Y-4.5
X10.55Y-4.5
X10.45Y-5.5
X10.55Y-5.5
X2.45Y-4.5
X2.55Y-4.5
X8.45Y-2.5
X8.55Y-2.5
X2.45Y-7.5
X2.55Y-7.5
X5.45Y-11.5
X5.55Y-11.5
X10.45Y-6.5
X10.55Y-6.5
X9.45Y-10.5
X9.55Y-10.5
X2.45Y-5.5
X2.55Y-5.5
X7.45Y-5.5
X7.55Y-5.5
X2.45Y-8.5
X2.55Y-8.5
X8.45Y-5.5
X8.55Y-5.5
X4.45Y-11.5
X4.55Y-11.5
X10.45Y-9.5
X10.55Y-9.5
X9.45Y-2.5
X9.55Y-2.5
X8.45Y-3.5
X8.55Y-3.5
X3.45Y-11.5
X3.55Y-11.5
X10.45Y-11.5
X10.55Y-11.5
X4.45Y-3.5
X4.55Y-3.5
X9.45Y-3.5
X9.55Y-3.5
X4.45Y-7.5
X4.55Y-7.5
X6.45Y-10.5
X6.55Y-10.5
X10.45Y-10.5
X10.55Y-10.5
X3.45Y-2.5
X3.55Y-2.5
X7.45Y-11.5
X7.55Y-11.5
X5.45Y-10.5
X5.55Y-10.5
X7.45Y-4.5
X7.55Y-4.5
X7.45Y-8.5
X7.55Y-8.5
X3.45Y-3.5
X3.55Y-3.5
X5.45Y-9.5
X5.55Y-9.5
X7.45Y-2.5
X7.55Y-2.5
X11.45Y-7.5
X11.55Y-7.5
X11.45Y-10.5
X11.55Y-10.5
X5.45Y-8.5
X5.55Y-8.5
X6.45Y-7.5
X6.55Y-7.5
X5.45Y-4.5
X5.55Y-4.5
X4.45Y-5.5
X4.55Y-5.5
X9.45Y-5.5
X9.55Y-5.5
X7.45Y-9.5
X7.55Y-9.5
X7.45Y-10.5
X7.55Y-10.5
X6.45Y-5.5
X6.55Y-5.5
X3.45Y-7.5
X3.55Y-7.5
X7.45Y-6.5
X7.55Y-6.5
T3
X9.7311Y-11.85
X9.8689Y-11.85
X10.1311Y-11.85
X10.2689Y-11.85
T4
X3.0Y-2.5
X11.0Y-2.5
X3.0Y-11.5
X11.0Y-11.5
T1
G00X3.8775Y-2.9
M15
G01X3.9225Y-2.9
M16
G05
G00X3.8775Y-3.1
M15
G01X3.9225Y-3.1
M16
G05
G00X4.0775Y-2.9
M15
G01X4.1225Y-2.9
M16
G05
G00X4.0775Y-3.1
M15
G01X4.1225Y-3.1
M16
G05
G00X8.8775Y-9.9
M15
G01X8.9225Y-9.9
M16
G05
G00X8.8775Y-10.1
M15
G01X8.9225Y-10.1
M16
G05
G00X9.0775Y-9.9
M15
G01X9.1225Y-9.9
M16
G05
G00X9.0775Y-10.1
M15
G01X9.1225Y-10.1
M16
G05
G00X10.8775Y-10.9
M15
G01X10.9225Y-10.9
M16
G05
G00X10.8775Y-11.1
M15
G01X10.9225Y-11.1
M16
G05
G00X11.0775Y-10.9
M15
G01X11.1225Y-10.9
M16
G05
G00X11.0775Y-11.1
M15
G01X11.1225Y-11.1
M16
G05
G00X4.8775Y-7.9
M15
G01X4.9225Y-7.9
M16
G05
G00X4.8775Y-8.1
M15
G01X4.9225Y-8.1
M16
G05
G00X5.0775Y-7.9
M15
G01X5.1225Y-7.9
M16
G05
G00X5.0775Y-8.1
M15
G01X5.1225Y-8.1
M16
G05
G00X6.8775Y-10.9
M15
G01X6.9225Y-10.9
M16
G05
G00X6.8775Y-11.1
M15
G01X6.9225Y-11.1
M16
G05
G00X7.0775Y-10.9
M15
G01X7.1225Y-10.9
M16
G05
G00X7.0775Y-11.1
M15
G01X7.1225Y-11.1
M16
G05
G00X5.8775Y-10.9
M15
G01X5.9225Y-10.9
M16
G05
G00X5.8775Y-11.1
M15
G01X5.9225Y-11.1
M16
G05
G00X6.0775Y-10.9
M15
G01X6.1225Y-10.9
M16
G05
G00X6.0775Y-11.1
M15
G01X6.1225Y-11.1
M16
G05
G00X4.8775Y-10.9
M15
G01X4.9225Y-10.9
M16
G05
G00X4.8775Y-11.1
M15
G01X4.9225Y-11.1
M16
G05
G00X5.0775Y-10.9
M15
G01X5.1225Y-10.9
M16
G05
G00X5.0775Y-11.1
M15
G01X5.1225Y-11.1
M16
G05
G00X7.8775Y-4.9
M15
G01X7.9225Y-4.9
M16
G05
G00X7.8775Y-5.1
M15
G01X7.9225Y-5.1
M16
G05
G00X8.0775Y-4.9
M15
G01X8.1225Y-4.9
M16
G05
G00X8.0775Y-5.1
M15
G01X8.1225Y-5.1
M16
G05
G00X9.8775Y-5.9
M15
G01X9.9225Y-5.9
M16
G05
G00X9.8775Y-6.1
M15
G01X9.9225Y-6.1
M16
G05
G00X10.0775Y-5.9
M15
G01X10.1225Y-5.9
M16
G05
G00X10.0775Y-6.1
M15
G01X10.1225Y-6.1
M16
G05
G00X7.8775Y-7.9
M15
G01X7.9225Y-7.9
M16
G05
G00X7.8775Y-8.1
M15
G01X7.9225Y-8.1
M16
G05
G00X8.0775Y-7.9
M15
G01X8.1225Y-7.9
M16
G05
G00X8.0775Y-8.1
M15
G01X8.1225Y-8.1
M16
G05
G00X9.8775Y-8.9
M15
G01X9.9225Y-8.9
M16
G05
G00X9.8775Y-9.1
M15
G01X9.9225Y-9.1
M16
G05
G00X10.0775Y-8.9
M15
G01X10.1225Y-8.9
M16
G05
G00X10.0775Y-9.1
M15
G01X10.1225Y-9.1
M16
G05
G00X4.8775Y-4.9
M15
G01X4.9225Y-4.9
M16
G05
G00X4.8775Y-5.1
M15
G01X4.9225Y-5.1
M16
G05
G00X5.0775Y-4.9
M15
G01X5.1225Y-4.9
M16
G05
G00X5.0775Y-5.1
M15
G01X5.1225Y-5.1
M16
G05
G00X10.8775Y-2.9
M15
G01X10.9225Y-2.9
M16
G05
G00X10.8775Y-3.1
M15
G01X10.9225Y-3.1
M16
G05
G00X11.0775Y-2.9
M15
G01X11.1225Y-2.9
M16
G05
G00X11.0775Y-3.1
M15
G01X11.1225Y-3.1
M16
G05
G00X3.8775Y-6.9
M15
G01X3.9225Y-6.9
M16
G05
G00X3.8775Y-7.1
M15
G01X3.9225Y-7.1
M16
G05
G00X4.0775Y-6.9
M15
G01X4.1225Y-6.9
M16
G05
G00X4.0775Y-7.1
M15
G01X4.1225Y-7.1
M16
G05
G00X2.8775Y-8.9
M15
G01X2.9225Y-8.9
M16
G05
G00X2.8775Y-9.1
M15
G01X2.9225Y-9.1
M16
G05
G00X3.0775Y-8.9
M15
G01X3.1225Y-8.9
M16
G05
G00X3.0775Y-9.1
M15
G01X3.1225Y-9.1
M16
G05
G00X10.8775Y-7.9
M15
G01X10.9225Y-7.9
M16
G05
G00X10.8775Y-8.1
M15
G01X10.9225Y-8.1
M16
G05
G00X11.0775Y-7.9
M15
G01X11.1225Y-7.9
M16
G05
G00X11.0775Y-8.1
M15
G01X11.1225Y-8.1
M16
G05
G00X8.8775Y-5.9
M15
G01X8.9225Y-5.9
M16
G05
G00X8.8775Y-6.1
M15
G01X8.9225Y-6.1
M16
G05
G00X9.0775Y-5.9
M15
G01X9.1225Y-5.9
M16
G05
G00X9.0775Y-6.1
M15
G01X9.1225Y-6.1
M16
G05
G00X5.8775Y-4.9
M15
G01X5.9225Y-4.9
M16
G05
G00X5.8775Y-5.1
M15
G01X5.9225Y-5.1
M16
G05
G00X6.0775Y-4.9
M15
G01X6.1225Y-4.9
M16
G05
G00X6.0775Y-5.1
M15
G01X6.1225Y-5.1
M16
G05
G00X6.8775Y-6.9
M15
G01X6.9225Y-6.9
M16
G05
G00X6.8775Y-7.1
M15
G01X6.9225Y-7.1
M16
G05
G00X7.0775Y-6.9
M15
G01X7.1225Y-6.9
M16
G05
G00X7.0775Y-7.1
M15
G01X7.1225Y-7.1
M16
G05
G00X4.8775Y-6.9
M15
G01X4.9225Y-6.9
M16
G05
G00X4.8775Y-7.1
M15
G01X4.9225Y-7.1
M16
G05
G00X5.0775Y-6.9
M15
G01X5.1225Y-6.9
M16
G05
G00X5.0775Y-7.1
M15
G01X5.1225Y-7.1
M16
G05
G00X5.8775Y-7.9
M15
G01X5.9225Y-7.9
M16
G05
G00X5.8775Y-8.1
M15
G01X5.9225Y-8.1
M16
G05
G00X6.0775Y-7.9
M15
G01X6.1225Y-7.9
M16
G05
G00X6.0775Y-8.1
M15
G01X6.1225Y-8.1
M16
G05
G00X6.8775Y-9.9
M15
G01X6.9225Y-9.9
M16
G05
G00X6.8775Y-10.1
M15
G01X6.9225Y-10.1
M16
G05
G00X7.0775Y-9.9
M15
G01X7.1225Y-9.9
M16
G05
G00X7.0775Y-10.1
M15
G01X7.1225Y-10.1
M16
G05
G00X2.8775Y-5.9
M15
G01X2.9225Y-5.9
M16
G05
G00X2.8775Y-6.1
M15
G01X2.9225Y-6.1
M16
G05
G00X3.0775Y-5.9
M15
G01X3.1225Y-5.9
M16
G05
G00X3.0775Y-6.1
M15
G01X3.1225Y-6.1
M16
G05
G00X9.8775Y-2.9
M15
G01X9.9225Y-2.9
M16
G05
G00X9.8775Y-3.1
M15
G01X9.9225Y-3.1
M16
G05
G00X10.0775Y-2.9
M15
G01X10.1225Y-2.9
M16
G05
G00X10.0775Y-3.1
M15
G01X10.1225Y-3.1
M16
G05
G00X10.8775Y-4.9
M15
G01X10.9225Y-4.9
M16
G05
G00X10.8775Y-5.1
M15
G01X10.9225Y-5.1
M16
G05
G00X11.0775Y-4.9
M15
G01X11.1225Y-4.9
M16
G05
G00X11.0775Y-5.1
M15
G01X11.1225Y-5.1
M16
G05
G00X10.8775Y-9.9
M15
G01X10.9225Y-9.9
M16
G05
G00X10.8775Y-10.1
M15
G01X10.9225Y-10.1
M16
G05
G00X11.0775Y-9.9
M15
G01X11.1225Y-9.9
M16
G05
G00X11.0775Y-10.1
M15
G01X11.1225Y-10.1
M16
G05
G00X7.8775Y-3.9
M15
G01X7.9225Y-3.9
M16
G05
G00X7.8775Y-4.1
M15
G01X7.9225Y-4.1
M16
G05
G00X8.0775Y-3.9
M15
G01X8.1225Y-3.9
M16
G05
G00X8.0775Y-4.1
M15
G01X8.1225Y-4.1
M16
G05
G00X6.8775Y-3.9
M15
G01X6.9225Y-3.9
M16
G05
G00X6.8775Y-4.1
M15
G01X6.9225Y-4.1
M16
G05
G00X7.0775Y-3.9
M15
G01X7.1225Y-3.9
M16
G05
G00X7.0775Y-4.1
M15
G01X7.1225Y-4.1
M16
G05
G00X3.8775Y-4.9
M15
G01X3.9225Y-4.9
M16
G05
G00X3.8775Y-5.1
M15
G01X3.9225Y-5.1
M16
G05
G00X4.0775Y-4.9
M15
G01X4.1225Y-4.9
M16
G05
G00X4.0775Y-5.1
M15
G01X4.1225Y-5.1
M16
G05
G00X9.8775Y-7.9
M15
G01X9.9225Y-7.9
M16
G05
G00X9.8775Y-8.1
M15
G01X9.9225Y-8.1
M16
G05
G00X10.0775Y-7.9
M15
G01X10.1225Y-7.9
M16
G05
G00X10.0775Y-8.1
M15
G01X10.1225Y-8.1
M16
G05
G00X3.8775Y-9.9
M15
G01X3.9225Y-9.9
M16
G05
G00X3.8775Y-10.1
M15
G01X3.9225Y-10.1
M16
G05
G00X4.0775Y-9.9
M15
G01X4.1225Y-9.9
M16
G05
G00X4.0775Y-10.1
M15
G01X4.1225Y-10.1
M16
G05
G00X8.8775Y-8.9
M15
G01X8.9225Y-8.9
M16
G05
G00X8.8775Y-9.1
M15
G01X8.9225Y-9.1
M16
G05
G00X9.0775Y-8.9
M15
G01X9.1225Y-8.9
M16
G05
G00X9.0775Y-9.1
M15
G01X9.1225Y-9.1
M16
G05
G00X9.8775Y-10.9
M15
G01X9.9225Y-10.9
M16
G05
G00X9.8775Y-11.1
M15
G01X9.9225Y-11.1
M16
G05
G00X10.0775Y-10.9
M15
G01X10.1225Y-10.9
M16
G05
G00X10.0775Y-11.1
M15
G01X10.1225Y-11.1
M16
G05
G00X5.8775Y-9.9
M15
G01X5.9225Y-9.9
M16
G05
G00X5.8775Y-10.1
M15
G01X5.9225Y-10.1
M16
G05
G00X6.0775Y-9.9
M15
G01X6.1225Y-9.9
M16
G05
G00X6.0775Y-10.1
M15
G01X6.1225Y-10.1
M16
G05
G00X10.8775Y-8.9
M15
G01X10.9225Y-8.9
M16
G05
G00X10.8775Y-9.1
M15
G01X10.9225Y-9.1
M16
G05
G00X11.0775Y-8.9
M15
G01X11.1225Y-8.9
M16
G05
G00X11.0775Y-9.1
M15
G01X11.1225Y-9.1
M16
G05
G00X4.8775Y-9.9
M15
G01X4.9225Y-9.9
M16
G05
G00X4.8775Y-10.1
M15
G01X4.9225Y-10.1
M16
G05
G00X5.0775Y-9.9
M15
G01X5.1225Y-9.9
M16
G05
G00X5.0775Y-10.1
M15
G01X5.1225Y-10.1
M16
G05
G00X9.8775Y-4.9
M15
G01X9.9225Y-4.9
M16
G05
G00X9.8775Y-5.1
M15
G01X9.9225Y-5.1
M16
G05
G00X10.0775Y-4.9
M15
G01X10.1225Y-4.9
M16
G05
G00X10.0775Y-5.1
M15
G01X10.1225Y-5.1
M16
G05
G00X2.8775Y-7.9
M15
G01X2.9225Y-7.9
M16
G05
G00X2.8775Y-8.1
M15
G01X2.9225Y-8.1
M16
G05
G00X3.0775Y-7.9
M15
G01X3.1225Y-7.9
M16
G05
G00X3.0775Y-8.1
M15
G01X3.1225Y-8.1
M16
G05
G00X5.8775Y-3.9
M15
G01X5.9225Y-3.9
M16
G05
G00X5.8775Y-4.1
M15
G01X5.9225Y-4.1
M16
G05
G00X6.0775Y-3.9
M15
G01X6.1225Y-3.9
M16
G05
G00X6.0775Y-4.1
M15
G01X6.1225Y-4.1
M16
G05
G00X6.8775Y-5.9
M15
G01X6.9225Y-5.9
M16
G05
G00X6.8775Y-6.1
M15
G01X6.9225Y-6.1
M16
G05
G00X7.0775Y-5.9
M15
G01X7.1225Y-5.9
M16
G05
G00X7.0775Y-6.1
M15
G01X7.1225Y-6.1
M16
G05
G00X7.8775Y-6.9
M15
G01X7.9225Y-6.9
M16
G05
G00X7.8775Y-7.1
M15
G01X7.9225Y-7.1
M16
G05
G00X8.0775Y-6.9
M15
G01X8.1225Y-6.9
M16
G05
G00X8.0775Y-7.1
M15
G01X8.1225Y-7.1
M16
G05
G00X4.8775Y-3.9
M15
G01X4.9225Y-3.9
M16
G05
G00X4.8775Y-4.1
M15
G01X4.9225Y-4.1
M16
G05
G00X5.0775Y-3.9
M15
G01X5.1225Y-3.9
M16
G05
G00X5.0775Y-4.1
M15
G01X5.1225Y-4.1
M16
G05
G00X2.8775Y-2.9
M15
G01X2.9225Y-2.9
M16
G05
G00X2.8775Y-3.1
M15
G01X2.9225Y-3.1
M16
G05
G00X3.0775Y-2.9
M15
G01X3.1225Y-2.9
M16
G05
G00X3.0775Y-3.1
M15
G01X3.1225Y-3.1
M16
G05
G00X3.8775Y-7.9
M15
G01X3.9225Y-7.9
M16
G05
G00X3.8775Y-8.1
M15
G01X3.9225Y-8.1
M16
G05
G00X4.0775Y-7.9
M15
G01X4.1225Y-7.9
M16
G05
G00X4.0775Y-8.1
M15
G01X4.1225Y-8.1
M16
G05
G00X2.8775Y-10.9
M15
G01X2.9225Y-10.9
M16
G05
G00X2.8775Y-11.1
M15
G01X2.9225Y-11.1
M16
G05
G00X3.0775Y-10.9
M15
G01X3.1225Y-10.9
M16
G05
G00X3.0775Y-11.1
M15
G01X3.1225Y-11.1
M16
G05
G00X3.8775Y-5.9
M15
G01X3.9225Y-5.9
M16
G05
G00X3.8775Y-6.1
M15
G01X3.9225Y-6.1
M16
G05
G00X4.0775Y-5.9
M15
G01X4.1225Y-5.9
M16
G05
G00X4.0775Y-6.1
M15
G01X4.1225Y-6.1
M16
G05
G00X2.8775Y-4.9
M15
G01X2.9225Y-4.9
M16
G05
G00X2.8775Y-5.1
M15
G01X2.9225Y-5.1
M16
G05
G00X3.0775Y-4.9
M15
G01X3.1225Y-4.9
M16
G05
G00X3.0775Y-5.1
M15
G01X3.1225Y-5.1
M16
G05
G00X10.8775Y-6.9
M15
G01X10.9225Y-6.9
M16
G05
G00X10.8775Y-7.1
M15
G01X10.9225Y-7.1
M16
G05
G00X11.0775Y-6.9
M15
G01X11.1225Y-6.9
M16
G05
G00X11.0775Y-7.1
M15
G01X11.1225Y-7.1
M16
G05
G00X8.8775Y-4.9
M15
G01X8.9225Y-4.9
M16
G05
G00X8.8775Y-5.1
M15
G01X8.9225Y-5.1
M16
G05
G00X9.0775Y-4.9
M15
G01X9.1225Y-4.9
M16
G05
G00X9.0775Y-5.1
M15
G01X9.1225Y-5.1
M16
G05
G00X8.8775Y-7.9
M15
G01X8.9225Y-7.9
M16
G05
G00X8.8775Y-8.1
M15
G01X8.9225Y-8.1
M16
G05
G00X9.0775Y-7.9
M15
G01X9.1225Y-7.9
M16
G05
G00X9.0775Y-8.1
M15
G01X9.1225Y-8.1
M16
G05
G00X5.8775Y-6.9
M15
G01X5.9225Y-6.9
M16
G05
G00X5.8775Y-7.1
M15
G01X5.9225Y-7.1
M16
G05
G00X6.0775Y-6.9
M15
G01X6.1225Y-6.9
M16
G05
G00X6.0775Y-7.1
M15
G01X6.1225Y-7.1
M16
G05
G00X6.8775Y-8.9
M15
G01X6.9225Y-8.9
M16
G05
G00X6.8775Y-9.1
M15
G01X6.9225Y-9.1
M16
G05
G00X7.0775Y-8.9
M15
G01X7.1225Y-8.9
M16
G05
G00X7.0775Y-9.1
M15
G01X7.1225Y-9.1
M16
G05
G00X8.8775Y-10.9
M15
G01X8.9225Y-10.9
M16
G05
G00X8.8775Y-11.1
M15
G01X8.9225Y-11.1
M16
G05
G00X9.0775Y-10.9
M15
G01X9.1225Y-10.9
M16
G05
G00X9.0775Y-11.1
M15
G01X9.1225Y-11.1
M16
G05
G00X10.8775Y-3.9
M15
G01X10.9225Y-3.9
M16
G05
G00X10.8775Y-4.1
M15
G01X10.9225Y-4.1
M16
G05
G00X11.0775Y-3.9
M15
G01X11.1225Y-3.9
M16
G05
G00X11.0775Y-4.1
M15
G01X11.1225Y-4.1
M16
G05
G00X7.8775Y-2.9
M15
G01X7.9225Y-2.9
M16
G05
G00X7.8775Y-3.1
M15
G01X7.9225Y-3.1
M16
G05
G00X8.0775Y-2.9
M15
G01X8.1225Y-2.9
M16
G05
G00X8.0775Y-3.1
M15
G01X8.1225Y-3.1
M16
G05
G00X6.8775Y-2.9
M15
G01X6.9225Y-2.9
M16
G05
G00X6.8775Y-3.1
M15
G01X6.9225Y-3.1
M16
G05
G00X7.0775Y-2.9
M15
G01X7.1225Y-2.9
M16
G05
G00X7.0775Y-3.1
M15
G01X7.1225Y-3.1
M16
G05
G00X7.8775Y-5.9
M15
G01X7.9225Y-5.9
M16
G05
G00X7.8775Y-6.1
M15
G01X7.9225Y-6.1
M16
G05
G00X8.0775Y-5.9
M15
G01X8.1225Y-5.9
M16
G05
G00X8.0775Y-6.1
M15
G01X8.1225Y-6.1
M16
G05
G00X8.8775Y-2.9
M15
G01X8.9225Y-2.9
M16
G05
G00X8.8775Y-3.1
M15
G01X8.9225Y-3.1
M16
G05
G00X9.0775Y-2.9
M15
G01X9.1225Y-2.9
M16
G05
G00X9.0775Y-3.1
M15
G01X9.1225Y-3.1
M16
G05
G00X9.8775Y-6.9
M15
G01X9.9225Y-6.9
M16
G05
G00X9.8775Y-7.1
M15
G01X9.9225Y-7.1
M16
G05
G00X10.0775Y-6.9
M15
G01X10.1225Y-6.9
M16
G05
G00X10.0775Y-7.1
M15
G01X10.1225Y-7.1
M16
G05
G00X4.8775Y-2.9
M15
G01X4.9225Y-2.9
M16
G05
G00X4.8775Y-3.1
M15
G01X4.9225Y-3.1
M16
G05
G00X5.0775Y-2.9
M15
G01X5.1225Y-2.9
M16
G05
G00X5.0775Y-3.1
M15
G01X5.1225Y-3.1
M16
G05
G00X7.8775Y-9.9
M15
G01X7.9225Y-9.9
M16
G05
G00X7.8775Y-10.1
M15
G01X7.9225Y-10.1
M16
G05
G00X8.0775Y-9.9
M15
G01X8.1225Y-9.9
M16
G05
G00X8.0775Y-10.1
M15
G01X8.1225Y-10.1
M16
G05
G00X3.8775Y-3.9
M15
G01X3.9225Y-3.9
M16
G05
G00X3.8775Y-4.1
M15
G01X3.9225Y-4.1
M16
G05
G00X4.0775Y-3.9
M15
G01X4.1225Y-3.9
M16
G05
G00X4.0775Y-4.1
M15
G01X4.1225Y-4.1
M16
G05
G00X7.8775Y-8.9
M15
G01X7.9225Y-8.9
M16
G05
G00X7.8775Y-9.1
M15
G01X7.9225Y-9.1
M16
G05
G00X8.0775Y-8.9
M15
G01X8.1225Y-8.9
M16
G05
G00X8.0775Y-9.1
M15
G01X8.1225Y-9.1
M16
G05
G00X3.8775Y-8.9
M15
G01X3.9225Y-8.9
M16
G05
G00X3.8775Y-9.1
M15
G01X3.9225Y-9.1
M16
G05
G00X4.0775Y-8.9
M15
G01X4.1225Y-8.9
M16
G05
G00X4.0775Y-9.1
M15
G01X4.1225Y-9.1
M16
G05
G00X4.8775Y-5.9
M15
G01X4.9225Y-5.9
M16
G05
G00X4.8775Y-6.1
M15
G01X4.9225Y-6.1
M16
G05
G00X5.0775Y-5.9
M15
G01X5.1225Y-5.9
M16
G05
G00X5.0775Y-6.1
M15
G01X5.1225Y-6.1
M16
G05
G00X4.8775Y-8.9
M15
G01X4.9225Y-8.9
M16
G05
G00X4.8775Y-9.1
M15
G01X4.9225Y-9.1
M16
G05
G00X5.0775Y-8.9
M15
G01X5.1225Y-8.9
M16
G05
G00X5.0775Y-9.1
M15
G01X5.1225Y-9.1
M16
G05
G00X9.8775Y-3.9
M15
G01X9.9225Y-3.9
M16
G05
G00X9.8775Y-4.1
M15
G01X9.9225Y-4.1
M16
G05
G00X10.0775Y-3.9
M15
G01X10.1225Y-3.9
M16
G05
G00X10.0775Y-4.1
M15
G01X10.1225Y-4.1
M16
G05
G00X5.8775Y-2.9
M15
G01X5.9225Y-2.9
M16
G05
G00X5.8775Y-3.1
M15
G01X5.9225Y-3.1
M16
G05
G00X6.0775Y-2.9
M15
G01X6.1225Y-2.9
M16
G05
G00X6.0775Y-3.1
M15
G01X6.1225Y-3.1
M16
G05
G00X2.8775Y-6.9
M15
G01X2.9225Y-6.9
M16
G05
G00X2.8775Y-7.1
M15
G01X2.9225Y-7.1
M16
G05
G00X3.0775Y-6.9
M15
G01X3.1225Y-6.9
M16
G05
G00X3.0775Y-7.1
M15
G01X3.1225Y-7.1
M16
G05
G00X8.8775Y-6.9
M15
G01X8.9225Y-6.9
M16
G05
G00X8.8775Y-7.1
M15
G01X8.9225Y-7.1
M16
G05
G00X9.0775Y-6.9
M15
G01X9.1225Y-6.9
M16
G05
G00X9.0775Y-7.1
M15
G01X9.1225Y-7.1
M16
G05
G00X6.8775Y-7.9
M15
G01X6.9225Y-7.9
M16
G05
G00X6.8775Y-8.1
M15
G01X6.9225Y-8.1
M16
G05
G00X7.0775Y-7.9
M15
G01X7.1225Y-7.9
M16
G05
G00X7.0775Y-8.1
M15
G01X7.1225Y-8.1
M16
G05
G00X2.8775Y-3.9
M15
G01X2.9225Y-3.9
M16
G05
G00X2.8775Y-4.1
M15
G01X2.9225Y-4.1
M16
G05
G00X3.0775Y-3.9
M15
G01X3.1225Y-3.9
M16
G05
G00X3.0775Y-4.1
M15
G01X3.1225Y-4.1
M16
G05
G00X9.8775Y-9.9
M15
G01X9.9225Y-9.9
M16
G05
G00X9.8775Y-10.1
M15
G01X9.9225Y-10.1
M16
G05
G00X10.0775Y-9.9
M15
G01X10.1225Y-9.9
M16
G05
G00X10.0775Y-10.1
M15
G01X10.1225Y-10.1
M16
G05
G00X5.8775Y-8.9
M15
G01X5.9225Y-8.9
M16
G05
G00X5.8775Y-9.1
M15
G01X5.9225Y-9.1
M16
G05
G00X6.0775Y-8.9
M15
G01X6.1225Y-8.9
M16
G05
G00X6.0775Y-9.1
M15
G01X6.1225Y-9.1
M16
G05
G00X2.8775Y-9.9
M15
G01X2.9225Y-9.9
M16
G05
G00X2.8775Y-10.1
M15
G01X2.9225Y-10.1
M16
G05
G00X3.0775Y-9.9
M15
G01X3.1225Y-9.9
M16
G05
G00X3.0775Y-10.1
M15
G01X3.1225Y-10.1
M16
G05
G00X10.8775Y-5.9
M15
G01X10.9225Y-5.9
M16
G05
G00X10.8775Y-6.1
M15
G01X10.9225Y-6.1
M16
G05
G00X11.0775Y-5.9
M15
G01X11.1225Y-5.9
M16
G05
G00X11.0775Y-6.1
M15
G01X11.1225Y-6.1
M16
G05
G00X8.8775Y-3.9
M15
G01X8.9225Y-3.9
M16
G05
G00X8.8775Y-4.1
M15
G01X8.9225Y-4.1
M16
G05
G00X9.0775Y-3.9
M15
G01X9.1225Y-3.9
M16
G05
G00X9.0775Y-4.1
M15
G01X9.1225Y-4.1
M16
G05
G00X3.8775Y-10.9
M15
G01X3.9225Y-10.9
M16
G05
G00X3.8775Y-11.1
M15
G01X3.9225Y-11.1
M16
G05
G00X4.0775Y-10.9
M15
G01X4.1225Y-10.9
M16
G05
G00X4.0775Y-11.1
M15
G01X4.1225Y-11.1
M16
G05
G00X6.8775Y-4.9
M15
G01X6.9225Y-4.9
M16
G05
G00X6.8775Y-5.1
M15
G01X6.9225Y-5.1
M16
G05
G00X7.0775Y-4.9
M15
G01X7.1225Y-4.9
M16
G05
G00X7.0775Y-5.1
M15
G01X7.1225Y-5.1
M16
G05
G00X7.8775Y-10.9
M15
G01X7.9225Y-10.9
M16
G05
G00X7.8775Y-11.1
M15
G01X7.9225Y-11.1
M16
G05
G00X8.0775Y-10.9
M15
G01X8.1225Y-10.9
M16
G05
G00X8.0775Y-11.1
M15
G01X8.1225Y-11.1
M16
G05
G00X5.8775Y-5.9
M15
G01X5.9225Y-5.9
M16
G05
G00X5.8775Y-6.1
M15
G01X5.9225Y-6.1
M16
G05
G00X6.0775Y-5.9
M15
G01X6.1225Y-5.9
M16
G05
G00X6.0775Y-6.1
M15
G01X6.1225Y-6.1
M16
G05
T0
M30
