G04 #@! TF.GenerationSoftware,KiCad,Pcbnew,5.1.2-f72e74a~84~ubuntu16.04.1*
G04 #@! TF.CreationDate,2019-10-21T15:23:02-07:00*
G04 #@! TF.ProjectId,dual_led_array,6475616c-5f6c-4656-945f-61727261792e,rev?*
G04 #@! TF.SameCoordinates,Original*
G04 #@! TF.FileFunction,Copper,L2,Bot*
G04 #@! TF.FilePolarity,Positive*
%FSLAX46Y46*%
G04 Gerber Fmt 4.6, Leading zero omitted, Abs format (unit mm)*
G04 Created by KiCad (PCBNEW 5.1.2-f72e74a~84~ubuntu16.04.1) date 2019-10-21 15:23:02*
%MOMM*%
%LPD*%
G04 APERTURE LIST*
%ADD10C,8.026400*%
%ADD11C,2.000000*%
%ADD12R,2.000000X2.000000*%
%ADD13O,2.286000X1.270000*%
%ADD14R,2.286000X1.270000*%
%ADD15C,1.800000*%
%ADD16R,1.800000X1.800000*%
%ADD17C,0.762000*%
G04 APERTURE END LIST*
D10*
X279400000Y-292100000D03*
X76200000Y-292100000D03*
X76200000Y-63500000D03*
X279400000Y-63500000D03*
D11*
X64770000Y-63500000D03*
D12*
X62230000Y-63500000D03*
D11*
X64770000Y-88900000D03*
D12*
X62230000Y-88900000D03*
D11*
X64770000Y-114300000D03*
D12*
X62230000Y-114300000D03*
D11*
X64770000Y-139700000D03*
D12*
X62230000Y-139700000D03*
D11*
X64770000Y-165100000D03*
D12*
X62230000Y-165100000D03*
D11*
X64770000Y-190500000D03*
D12*
X62230000Y-190500000D03*
D11*
X64770000Y-215900000D03*
D12*
X62230000Y-215900000D03*
D11*
X64770000Y-241300000D03*
D12*
X62230000Y-241300000D03*
D11*
X64770000Y-266700000D03*
D12*
X62230000Y-266700000D03*
D11*
X64770000Y-292100000D03*
D12*
X62230000Y-292100000D03*
D11*
X90170000Y-63500000D03*
D12*
X87630000Y-63500000D03*
D11*
X90170000Y-88900000D03*
D12*
X87630000Y-88900000D03*
D11*
X90170000Y-114300000D03*
D12*
X87630000Y-114300000D03*
D11*
X90170000Y-139700000D03*
D12*
X87630000Y-139700000D03*
D11*
X90170000Y-165100000D03*
D12*
X87630000Y-165100000D03*
D11*
X90170000Y-190500000D03*
D12*
X87630000Y-190500000D03*
D11*
X90170000Y-215900000D03*
D12*
X87630000Y-215900000D03*
D11*
X90170000Y-241300000D03*
D12*
X87630000Y-241300000D03*
D11*
X90170000Y-266700000D03*
D12*
X87630000Y-266700000D03*
D11*
X90170000Y-292100000D03*
D12*
X87630000Y-292100000D03*
D11*
X115570000Y-63500000D03*
D12*
X113030000Y-63500000D03*
D11*
X115570000Y-88900000D03*
D12*
X113030000Y-88900000D03*
D11*
X115570000Y-114300000D03*
D12*
X113030000Y-114300000D03*
D11*
X115570000Y-139700000D03*
D12*
X113030000Y-139700000D03*
D11*
X115570000Y-165100000D03*
D12*
X113030000Y-165100000D03*
D11*
X115570000Y-190500000D03*
D12*
X113030000Y-190500000D03*
D11*
X115570000Y-215900000D03*
D12*
X113030000Y-215900000D03*
D11*
X115570000Y-241300000D03*
D12*
X113030000Y-241300000D03*
D11*
X115570000Y-266700000D03*
D12*
X113030000Y-266700000D03*
D11*
X115570000Y-292100000D03*
D12*
X113030000Y-292100000D03*
D11*
X140970000Y-63500000D03*
D12*
X138430000Y-63500000D03*
D11*
X140970000Y-88900000D03*
D12*
X138430000Y-88900000D03*
D11*
X140970000Y-114300000D03*
D12*
X138430000Y-114300000D03*
D11*
X140970000Y-139700000D03*
D12*
X138430000Y-139700000D03*
D11*
X140970000Y-165100000D03*
D12*
X138430000Y-165100000D03*
D11*
X140970000Y-190500000D03*
D12*
X138430000Y-190500000D03*
D11*
X140970000Y-215900000D03*
D12*
X138430000Y-215900000D03*
D11*
X140970000Y-241300000D03*
D12*
X138430000Y-241300000D03*
D11*
X140970000Y-266700000D03*
D12*
X138430000Y-266700000D03*
D11*
X140970000Y-292100000D03*
D12*
X138430000Y-292100000D03*
D11*
X166370000Y-63500000D03*
D12*
X163830000Y-63500000D03*
D11*
X166370000Y-88900000D03*
D12*
X163830000Y-88900000D03*
D11*
X166370000Y-114300000D03*
D12*
X163830000Y-114300000D03*
D11*
X166370000Y-139700000D03*
D12*
X163830000Y-139700000D03*
D11*
X166370000Y-165100000D03*
D12*
X163830000Y-165100000D03*
D11*
X166370000Y-190500000D03*
D12*
X163830000Y-190500000D03*
D11*
X166370000Y-215900000D03*
D12*
X163830000Y-215900000D03*
D11*
X166370000Y-241300000D03*
D12*
X163830000Y-241300000D03*
D11*
X166370000Y-266700000D03*
D12*
X163830000Y-266700000D03*
D11*
X166370000Y-292100000D03*
D12*
X163830000Y-292100000D03*
D11*
X191770000Y-63500000D03*
D12*
X189230000Y-63500000D03*
D11*
X191770000Y-88900000D03*
D12*
X189230000Y-88900000D03*
D11*
X191770000Y-114300000D03*
D12*
X189230000Y-114300000D03*
D11*
X191770000Y-139700000D03*
D12*
X189230000Y-139700000D03*
D11*
X191770000Y-165100000D03*
D12*
X189230000Y-165100000D03*
D11*
X191770000Y-190500000D03*
D12*
X189230000Y-190500000D03*
D11*
X191770000Y-215900000D03*
D12*
X189230000Y-215900000D03*
D11*
X191770000Y-241300000D03*
D12*
X189230000Y-241300000D03*
D11*
X191770000Y-266700000D03*
D12*
X189230000Y-266700000D03*
D11*
X191770000Y-292100000D03*
D12*
X189230000Y-292100000D03*
D11*
X217170000Y-63500000D03*
D12*
X214630000Y-63500000D03*
D11*
X217170000Y-88900000D03*
D12*
X214630000Y-88900000D03*
D11*
X217170000Y-114300000D03*
D12*
X214630000Y-114300000D03*
D11*
X217170000Y-139700000D03*
D12*
X214630000Y-139700000D03*
D11*
X217170000Y-165100000D03*
D12*
X214630000Y-165100000D03*
D11*
X217170000Y-190500000D03*
D12*
X214630000Y-190500000D03*
D11*
X217170000Y-215900000D03*
D12*
X214630000Y-215900000D03*
D11*
X217170000Y-241300000D03*
D12*
X214630000Y-241300000D03*
D11*
X217170000Y-266700000D03*
D12*
X214630000Y-266700000D03*
D11*
X217170000Y-292100000D03*
D12*
X214630000Y-292100000D03*
D11*
X242570000Y-63500000D03*
D12*
X240030000Y-63500000D03*
D11*
X242570000Y-88900000D03*
D12*
X240030000Y-88900000D03*
D11*
X242570000Y-114300000D03*
D12*
X240030000Y-114300000D03*
D11*
X242570000Y-139700000D03*
D12*
X240030000Y-139700000D03*
D11*
X242570000Y-165100000D03*
D12*
X240030000Y-165100000D03*
D11*
X242570000Y-190500000D03*
D12*
X240030000Y-190500000D03*
D11*
X242570000Y-215900000D03*
D12*
X240030000Y-215900000D03*
D11*
X242570000Y-241300000D03*
D12*
X240030000Y-241300000D03*
D11*
X242570000Y-266700000D03*
D12*
X240030000Y-266700000D03*
D11*
X242570000Y-292100000D03*
D12*
X240030000Y-292100000D03*
D11*
X267970000Y-63500000D03*
D12*
X265430000Y-63500000D03*
D11*
X267970000Y-88900000D03*
D12*
X265430000Y-88900000D03*
D11*
X267970000Y-114300000D03*
D12*
X265430000Y-114300000D03*
D11*
X267970000Y-139700000D03*
D12*
X265430000Y-139700000D03*
D11*
X267970000Y-165100000D03*
D12*
X265430000Y-165100000D03*
D11*
X267970000Y-190500000D03*
D12*
X265430000Y-190500000D03*
D11*
X267970000Y-215900000D03*
D12*
X265430000Y-215900000D03*
D11*
X267970000Y-241300000D03*
D12*
X265430000Y-241300000D03*
D11*
X267970000Y-266700000D03*
D12*
X265430000Y-266700000D03*
D11*
X267970000Y-292100000D03*
D12*
X265430000Y-292100000D03*
D11*
X293370000Y-63500000D03*
D12*
X290830000Y-63500000D03*
D11*
X293370000Y-88900000D03*
D12*
X290830000Y-88900000D03*
D11*
X293370000Y-114300000D03*
D12*
X290830000Y-114300000D03*
D11*
X293370000Y-139700000D03*
D12*
X290830000Y-139700000D03*
D11*
X293370000Y-165100000D03*
D12*
X290830000Y-165100000D03*
D11*
X293370000Y-190500000D03*
D12*
X290830000Y-190500000D03*
D11*
X293370000Y-215900000D03*
D12*
X290830000Y-215900000D03*
D11*
X293370000Y-241300000D03*
D12*
X290830000Y-241300000D03*
D11*
X293370000Y-266700000D03*
D12*
X290830000Y-266700000D03*
D11*
X293370000Y-292100000D03*
D12*
X290830000Y-292100000D03*
D13*
X73660000Y-73660000D03*
X78740000Y-73660000D03*
X78740000Y-78740000D03*
D14*
X73660000Y-78740000D03*
D13*
X73660000Y-99060000D03*
X78740000Y-99060000D03*
X78740000Y-104140000D03*
D14*
X73660000Y-104140000D03*
D13*
X73660000Y-124460000D03*
X78740000Y-124460000D03*
X78740000Y-129540000D03*
D14*
X73660000Y-129540000D03*
D13*
X73660000Y-149860000D03*
X78740000Y-149860000D03*
X78740000Y-154940000D03*
D14*
X73660000Y-154940000D03*
D13*
X73660000Y-175260000D03*
X78740000Y-175260000D03*
X78740000Y-180340000D03*
D14*
X73660000Y-180340000D03*
D13*
X73660000Y-200660000D03*
X78740000Y-200660000D03*
X78740000Y-205740000D03*
D14*
X73660000Y-205740000D03*
D13*
X73660000Y-226060000D03*
X78740000Y-226060000D03*
X78740000Y-231140000D03*
D14*
X73660000Y-231140000D03*
D13*
X73660000Y-251460000D03*
X78740000Y-251460000D03*
X78740000Y-256540000D03*
D14*
X73660000Y-256540000D03*
D13*
X73660000Y-276860000D03*
X78740000Y-276860000D03*
X78740000Y-281940000D03*
D14*
X73660000Y-281940000D03*
D13*
X99060000Y-73660000D03*
X104140000Y-73660000D03*
X104140000Y-78740000D03*
D14*
X99060000Y-78740000D03*
D13*
X99060000Y-99060000D03*
X104140000Y-99060000D03*
X104140000Y-104140000D03*
D14*
X99060000Y-104140000D03*
D13*
X99060000Y-124460000D03*
X104140000Y-124460000D03*
X104140000Y-129540000D03*
D14*
X99060000Y-129540000D03*
D13*
X99060000Y-149860000D03*
X104140000Y-149860000D03*
X104140000Y-154940000D03*
D14*
X99060000Y-154940000D03*
D13*
X99060000Y-175260000D03*
X104140000Y-175260000D03*
X104140000Y-180340000D03*
D14*
X99060000Y-180340000D03*
D13*
X99060000Y-200660000D03*
X104140000Y-200660000D03*
X104140000Y-205740000D03*
D14*
X99060000Y-205740000D03*
D13*
X99060000Y-226060000D03*
X104140000Y-226060000D03*
X104140000Y-231140000D03*
D14*
X99060000Y-231140000D03*
D13*
X99060000Y-251460000D03*
X104140000Y-251460000D03*
X104140000Y-256540000D03*
D14*
X99060000Y-256540000D03*
D13*
X99060000Y-276860000D03*
X104140000Y-276860000D03*
X104140000Y-281940000D03*
D14*
X99060000Y-281940000D03*
D13*
X124460000Y-73660000D03*
X129540000Y-73660000D03*
X129540000Y-78740000D03*
D14*
X124460000Y-78740000D03*
D13*
X124460000Y-99060000D03*
X129540000Y-99060000D03*
X129540000Y-104140000D03*
D14*
X124460000Y-104140000D03*
D13*
X124460000Y-124460000D03*
X129540000Y-124460000D03*
X129540000Y-129540000D03*
D14*
X124460000Y-129540000D03*
D13*
X124460000Y-149860000D03*
X129540000Y-149860000D03*
X129540000Y-154940000D03*
D14*
X124460000Y-154940000D03*
D13*
X124460000Y-175260000D03*
X129540000Y-175260000D03*
X129540000Y-180340000D03*
D14*
X124460000Y-180340000D03*
D13*
X124460000Y-200660000D03*
X129540000Y-200660000D03*
X129540000Y-205740000D03*
D14*
X124460000Y-205740000D03*
D13*
X124460000Y-226060000D03*
X129540000Y-226060000D03*
X129540000Y-231140000D03*
D14*
X124460000Y-231140000D03*
D13*
X124460000Y-251460000D03*
X129540000Y-251460000D03*
X129540000Y-256540000D03*
D14*
X124460000Y-256540000D03*
D13*
X124460000Y-276860000D03*
X129540000Y-276860000D03*
X129540000Y-281940000D03*
D14*
X124460000Y-281940000D03*
D13*
X149860000Y-73660000D03*
X154940000Y-73660000D03*
X154940000Y-78740000D03*
D14*
X149860000Y-78740000D03*
D13*
X149860000Y-99060000D03*
X154940000Y-99060000D03*
X154940000Y-104140000D03*
D14*
X149860000Y-104140000D03*
D13*
X149860000Y-124460000D03*
X154940000Y-124460000D03*
X154940000Y-129540000D03*
D14*
X149860000Y-129540000D03*
D13*
X149860000Y-149860000D03*
X154940000Y-149860000D03*
X154940000Y-154940000D03*
D14*
X149860000Y-154940000D03*
D13*
X149860000Y-175260000D03*
X154940000Y-175260000D03*
X154940000Y-180340000D03*
D14*
X149860000Y-180340000D03*
D13*
X149860000Y-200660000D03*
X154940000Y-200660000D03*
X154940000Y-205740000D03*
D14*
X149860000Y-205740000D03*
D13*
X149860000Y-226060000D03*
X154940000Y-226060000D03*
X154940000Y-231140000D03*
D14*
X149860000Y-231140000D03*
D13*
X149860000Y-251460000D03*
X154940000Y-251460000D03*
X154940000Y-256540000D03*
D14*
X149860000Y-256540000D03*
D13*
X149860000Y-276860000D03*
X154940000Y-276860000D03*
X154940000Y-281940000D03*
D14*
X149860000Y-281940000D03*
D13*
X175260000Y-73660000D03*
X180340000Y-73660000D03*
X180340000Y-78740000D03*
D14*
X175260000Y-78740000D03*
D13*
X175260000Y-99060000D03*
X180340000Y-99060000D03*
X180340000Y-104140000D03*
D14*
X175260000Y-104140000D03*
D13*
X175260000Y-124460000D03*
X180340000Y-124460000D03*
X180340000Y-129540000D03*
D14*
X175260000Y-129540000D03*
D13*
X175260000Y-149860000D03*
X180340000Y-149860000D03*
X180340000Y-154940000D03*
D14*
X175260000Y-154940000D03*
D13*
X175260000Y-175260000D03*
X180340000Y-175260000D03*
X180340000Y-180340000D03*
D14*
X175260000Y-180340000D03*
D13*
X175260000Y-200660000D03*
X180340000Y-200660000D03*
X180340000Y-205740000D03*
D14*
X175260000Y-205740000D03*
D13*
X175260000Y-226060000D03*
X180340000Y-226060000D03*
X180340000Y-231140000D03*
D14*
X175260000Y-231140000D03*
D13*
X175260000Y-251460000D03*
X180340000Y-251460000D03*
X180340000Y-256540000D03*
D14*
X175260000Y-256540000D03*
D13*
X175260000Y-276860000D03*
X180340000Y-276860000D03*
X180340000Y-281940000D03*
D14*
X175260000Y-281940000D03*
D13*
X200660000Y-73660000D03*
X205740000Y-73660000D03*
X205740000Y-78740000D03*
D14*
X200660000Y-78740000D03*
D13*
X200660000Y-99060000D03*
X205740000Y-99060000D03*
X205740000Y-104140000D03*
D14*
X200660000Y-104140000D03*
D13*
X200660000Y-124460000D03*
X205740000Y-124460000D03*
X205740000Y-129540000D03*
D14*
X200660000Y-129540000D03*
D13*
X200660000Y-149860000D03*
X205740000Y-149860000D03*
X205740000Y-154940000D03*
D14*
X200660000Y-154940000D03*
D13*
X200660000Y-175260000D03*
X205740000Y-175260000D03*
X205740000Y-180340000D03*
D14*
X200660000Y-180340000D03*
D13*
X200660000Y-200660000D03*
X205740000Y-200660000D03*
X205740000Y-205740000D03*
D14*
X200660000Y-205740000D03*
D13*
X200660000Y-226060000D03*
X205740000Y-226060000D03*
X205740000Y-231140000D03*
D14*
X200660000Y-231140000D03*
D13*
X200660000Y-251460000D03*
X205740000Y-251460000D03*
X205740000Y-256540000D03*
D14*
X200660000Y-256540000D03*
D13*
X200660000Y-276860000D03*
X205740000Y-276860000D03*
X205740000Y-281940000D03*
D14*
X200660000Y-281940000D03*
D13*
X226060000Y-73660000D03*
X231140000Y-73660000D03*
X231140000Y-78740000D03*
D14*
X226060000Y-78740000D03*
D13*
X226060000Y-99060000D03*
X231140000Y-99060000D03*
X231140000Y-104140000D03*
D14*
X226060000Y-104140000D03*
D13*
X226060000Y-124460000D03*
X231140000Y-124460000D03*
X231140000Y-129540000D03*
D14*
X226060000Y-129540000D03*
D13*
X226060000Y-149860000D03*
X231140000Y-149860000D03*
X231140000Y-154940000D03*
D14*
X226060000Y-154940000D03*
D13*
X226060000Y-175260000D03*
X231140000Y-175260000D03*
X231140000Y-180340000D03*
D14*
X226060000Y-180340000D03*
D13*
X226060000Y-200660000D03*
X231140000Y-200660000D03*
X231140000Y-205740000D03*
D14*
X226060000Y-205740000D03*
D13*
X226060000Y-226060000D03*
X231140000Y-226060000D03*
X231140000Y-231140000D03*
D14*
X226060000Y-231140000D03*
D13*
X226060000Y-251460000D03*
X231140000Y-251460000D03*
X231140000Y-256540000D03*
D14*
X226060000Y-256540000D03*
D13*
X226060000Y-276860000D03*
X231140000Y-276860000D03*
X231140000Y-281940000D03*
D14*
X226060000Y-281940000D03*
D13*
X251460000Y-73660000D03*
X256540000Y-73660000D03*
X256540000Y-78740000D03*
D14*
X251460000Y-78740000D03*
D13*
X251460000Y-99060000D03*
X256540000Y-99060000D03*
X256540000Y-104140000D03*
D14*
X251460000Y-104140000D03*
D13*
X251460000Y-124460000D03*
X256540000Y-124460000D03*
X256540000Y-129540000D03*
D14*
X251460000Y-129540000D03*
D13*
X251460000Y-149860000D03*
X256540000Y-149860000D03*
X256540000Y-154940000D03*
D14*
X251460000Y-154940000D03*
D13*
X251460000Y-175260000D03*
X256540000Y-175260000D03*
X256540000Y-180340000D03*
D14*
X251460000Y-180340000D03*
D13*
X251460000Y-200660000D03*
X256540000Y-200660000D03*
X256540000Y-205740000D03*
D14*
X251460000Y-205740000D03*
D13*
X251460000Y-226060000D03*
X256540000Y-226060000D03*
X256540000Y-231140000D03*
D14*
X251460000Y-231140000D03*
D13*
X251460000Y-251460000D03*
X256540000Y-251460000D03*
X256540000Y-256540000D03*
D14*
X251460000Y-256540000D03*
D13*
X251460000Y-276860000D03*
X256540000Y-276860000D03*
X256540000Y-281940000D03*
D14*
X251460000Y-281940000D03*
D13*
X276860000Y-73660000D03*
X281940000Y-73660000D03*
X281940000Y-78740000D03*
D14*
X276860000Y-78740000D03*
D13*
X276860000Y-99060000D03*
X281940000Y-99060000D03*
X281940000Y-104140000D03*
D14*
X276860000Y-104140000D03*
D13*
X276860000Y-124460000D03*
X281940000Y-124460000D03*
X281940000Y-129540000D03*
D14*
X276860000Y-129540000D03*
D13*
X276860000Y-149860000D03*
X281940000Y-149860000D03*
X281940000Y-154940000D03*
D14*
X276860000Y-154940000D03*
D13*
X276860000Y-175260000D03*
X281940000Y-175260000D03*
X281940000Y-180340000D03*
D14*
X276860000Y-180340000D03*
D13*
X276860000Y-200660000D03*
X281940000Y-200660000D03*
X281940000Y-205740000D03*
D14*
X276860000Y-205740000D03*
D13*
X276860000Y-226060000D03*
X281940000Y-226060000D03*
X281940000Y-231140000D03*
D14*
X276860000Y-231140000D03*
D13*
X276860000Y-251460000D03*
X281940000Y-251460000D03*
X281940000Y-256540000D03*
D14*
X276860000Y-256540000D03*
D13*
X276860000Y-276860000D03*
X281940000Y-276860000D03*
X281940000Y-281940000D03*
D14*
X276860000Y-281940000D03*
D15*
X250670060Y-300990000D03*
D16*
X247169940Y-300990000D03*
D15*
X260830060Y-300990000D03*
D16*
X257329940Y-300990000D03*
D17*
X62230000Y-63500000D02*
X62230000Y-65262000D01*
X64770000Y-88900000D02*
X64770000Y-67802000D01*
X64770000Y-67802000D02*
X62230000Y-65262000D01*
X247169900Y-68099900D02*
X242570000Y-63500000D01*
X247169900Y-300990000D02*
X247169900Y-68099900D01*
X247169900Y-68099900D02*
X253351200Y-61918600D01*
X253351200Y-61918600D02*
X266700000Y-61918600D01*
X266700000Y-61918600D02*
X267970000Y-63188600D01*
X267970000Y-63188600D02*
X267970000Y-63500000D01*
X62230000Y-88900000D02*
X62230000Y-90662000D01*
X64770000Y-114300000D02*
X64770000Y-93202000D01*
X64770000Y-93202000D02*
X62230000Y-90662000D01*
X62230000Y-114300000D02*
X62230000Y-116062000D01*
X64770000Y-139700000D02*
X64770000Y-118602000D01*
X64770000Y-118602000D02*
X62230000Y-116062000D01*
X62230000Y-139700000D02*
X62230000Y-141462000D01*
X64770000Y-165100000D02*
X64770000Y-144002000D01*
X64770000Y-144002000D02*
X62230000Y-141462000D01*
X62230000Y-165100000D02*
X62230000Y-166862000D01*
X64770000Y-190500000D02*
X64770000Y-169402000D01*
X64770000Y-169402000D02*
X62230000Y-166862000D01*
X62230000Y-190500000D02*
X62230000Y-192262000D01*
X64770000Y-215900000D02*
X64770000Y-194802000D01*
X64770000Y-194802000D02*
X62230000Y-192262000D01*
X62230000Y-215900000D02*
X62230000Y-217662000D01*
X64770000Y-241300000D02*
X64770000Y-220202000D01*
X64770000Y-220202000D02*
X62230000Y-217662000D01*
X62230000Y-241300000D02*
X62230000Y-243062000D01*
X64770000Y-266700000D02*
X64770000Y-245602000D01*
X64770000Y-245602000D02*
X62230000Y-243062000D01*
X62230000Y-266700000D02*
X62230000Y-268462000D01*
X64770000Y-292100000D02*
X64770000Y-271002000D01*
X64770000Y-271002000D02*
X62230000Y-268462000D01*
X138430000Y-292100000D02*
X136668000Y-292100000D01*
X136668000Y-292100000D02*
X135071000Y-293697000D01*
X135071000Y-293697000D02*
X114627000Y-293697000D01*
X114627000Y-293697000D02*
X113030000Y-292100000D01*
X113030000Y-292100000D02*
X111268000Y-292100000D01*
X111268000Y-292100000D02*
X109671000Y-293697000D01*
X109671000Y-293697000D02*
X89227000Y-293697000D01*
X89227000Y-293697000D02*
X87630000Y-292100000D01*
X87630000Y-63500000D02*
X87630000Y-65262000D01*
X90170000Y-88900000D02*
X90170000Y-67802000D01*
X90170000Y-67802000D02*
X87630000Y-65262000D01*
X87630000Y-88900000D02*
X87630000Y-90662000D01*
X90170000Y-114300000D02*
X90170000Y-93202000D01*
X90170000Y-93202000D02*
X87630000Y-90662000D01*
X87630000Y-114300000D02*
X87630000Y-116062000D01*
X90170000Y-139700000D02*
X90170000Y-118602000D01*
X90170000Y-118602000D02*
X87630000Y-116062000D01*
X87630000Y-139700000D02*
X87630000Y-141462000D01*
X90170000Y-165100000D02*
X90170000Y-144002000D01*
X90170000Y-144002000D02*
X87630000Y-141462000D01*
X87630000Y-165100000D02*
X87630000Y-166862000D01*
X90170000Y-190500000D02*
X90170000Y-169402000D01*
X90170000Y-169402000D02*
X87630000Y-166862000D01*
X87630000Y-190500000D02*
X87630000Y-192262000D01*
X90170000Y-215900000D02*
X90170000Y-194802000D01*
X90170000Y-194802000D02*
X87630000Y-192262000D01*
X87630000Y-215900000D02*
X87630000Y-217662000D01*
X90170000Y-241300000D02*
X90170000Y-220202000D01*
X90170000Y-220202000D02*
X87630000Y-217662000D01*
X87630000Y-241300000D02*
X87630000Y-243062000D01*
X90170000Y-266700000D02*
X90170000Y-245602000D01*
X90170000Y-245602000D02*
X87630000Y-243062000D01*
X87630000Y-266700000D02*
X87630000Y-268462000D01*
X90170000Y-292100000D02*
X90170000Y-271002000D01*
X90170000Y-271002000D02*
X87630000Y-268462000D01*
X113030000Y-63500000D02*
X113030000Y-65262000D01*
X115570000Y-88900000D02*
X115570000Y-67802000D01*
X115570000Y-67802000D02*
X113030000Y-65262000D01*
X113030000Y-88900000D02*
X113030000Y-90662000D01*
X115570000Y-114300000D02*
X115570000Y-93202000D01*
X115570000Y-93202000D02*
X113030000Y-90662000D01*
X113030000Y-114300000D02*
X113030000Y-116062000D01*
X115570000Y-139700000D02*
X115570000Y-118602000D01*
X115570000Y-118602000D02*
X113030000Y-116062000D01*
X113030000Y-139700000D02*
X113030000Y-141462000D01*
X115570000Y-165100000D02*
X115570000Y-144002000D01*
X115570000Y-144002000D02*
X113030000Y-141462000D01*
X113030000Y-165100000D02*
X113030000Y-166862000D01*
X115570000Y-190500000D02*
X115570000Y-169402000D01*
X115570000Y-169402000D02*
X113030000Y-166862000D01*
X113030000Y-190500000D02*
X113030000Y-192262000D01*
X115570000Y-215900000D02*
X115570000Y-194802000D01*
X115570000Y-194802000D02*
X113030000Y-192262000D01*
X113030000Y-215900000D02*
X113030000Y-217662000D01*
X115570000Y-241300000D02*
X115570000Y-220202000D01*
X115570000Y-220202000D02*
X113030000Y-217662000D01*
X113030000Y-241300000D02*
X113030000Y-243062000D01*
X115570000Y-266700000D02*
X115570000Y-245602000D01*
X115570000Y-245602000D02*
X113030000Y-243062000D01*
X113030000Y-266700000D02*
X113030000Y-268462000D01*
X115570000Y-292100000D02*
X115570000Y-271002000D01*
X115570000Y-271002000D02*
X113030000Y-268462000D01*
X138430000Y-63500000D02*
X138430000Y-65262000D01*
X140970000Y-88900000D02*
X140970000Y-67802000D01*
X140970000Y-67802000D02*
X138430000Y-65262000D01*
X138430000Y-88900000D02*
X138430000Y-90662000D01*
X140970000Y-114300000D02*
X140970000Y-93202000D01*
X140970000Y-93202000D02*
X138430000Y-90662000D01*
X138430000Y-114300000D02*
X138430000Y-116062000D01*
X140970000Y-139700000D02*
X140970000Y-118602000D01*
X140970000Y-118602000D02*
X138430000Y-116062000D01*
X138430000Y-139700000D02*
X138430000Y-141462000D01*
X140970000Y-165100000D02*
X140970000Y-144002000D01*
X140970000Y-144002000D02*
X138430000Y-141462000D01*
X138430000Y-165100000D02*
X138430000Y-166862000D01*
X140970000Y-190500000D02*
X140970000Y-169402000D01*
X140970000Y-169402000D02*
X138430000Y-166862000D01*
X138430000Y-190500000D02*
X138430000Y-192262000D01*
X140970000Y-215900000D02*
X140970000Y-194802000D01*
X140970000Y-194802000D02*
X138430000Y-192262000D01*
X138430000Y-215900000D02*
X138430000Y-217662000D01*
X140970000Y-241300000D02*
X140970000Y-220202000D01*
X140970000Y-220202000D02*
X138430000Y-217662000D01*
X138430000Y-241300000D02*
X138430000Y-243062000D01*
X140970000Y-266700000D02*
X140970000Y-245602000D01*
X140970000Y-245602000D02*
X138430000Y-243062000D01*
X138430000Y-266700000D02*
X138430000Y-268462000D01*
X140970000Y-292100000D02*
X140970000Y-271002000D01*
X140970000Y-271002000D02*
X138430000Y-268462000D01*
X163830000Y-63500000D02*
X163830000Y-65262000D01*
X166370000Y-88900000D02*
X166370000Y-67802000D01*
X166370000Y-67802000D02*
X163830000Y-65262000D01*
X163830000Y-88900000D02*
X163830000Y-90662000D01*
X166370000Y-114300000D02*
X166370000Y-93202000D01*
X166370000Y-93202000D02*
X163830000Y-90662000D01*
X163830000Y-114300000D02*
X163830000Y-116062000D01*
X166370000Y-139700000D02*
X166370000Y-118602000D01*
X166370000Y-118602000D02*
X163830000Y-116062000D01*
X163830000Y-139700000D02*
X163830000Y-141462000D01*
X166370000Y-165100000D02*
X166370000Y-144002000D01*
X166370000Y-144002000D02*
X163830000Y-141462000D01*
X163830000Y-165100000D02*
X163830000Y-166862000D01*
X166370000Y-190500000D02*
X166370000Y-169402000D01*
X166370000Y-169402000D02*
X163830000Y-166862000D01*
X163830000Y-190500000D02*
X163830000Y-192262000D01*
X166370000Y-215900000D02*
X166370000Y-194802000D01*
X166370000Y-194802000D02*
X163830000Y-192262000D01*
X163830000Y-215900000D02*
X163830000Y-217662000D01*
X166370000Y-241300000D02*
X166370000Y-220202000D01*
X166370000Y-220202000D02*
X163830000Y-217662000D01*
X163830000Y-241300000D02*
X163830000Y-243062000D01*
X166370000Y-266700000D02*
X166370000Y-245602000D01*
X166370000Y-245602000D02*
X163830000Y-243062000D01*
X163830000Y-266700000D02*
X163830000Y-268462000D01*
X166370000Y-292100000D02*
X166370000Y-271002000D01*
X166370000Y-271002000D02*
X163830000Y-268462000D01*
X189230000Y-63500000D02*
X189230000Y-65262000D01*
X191770000Y-88900000D02*
X191770000Y-67802000D01*
X191770000Y-67802000D02*
X189230000Y-65262000D01*
X189230000Y-88900000D02*
X189230000Y-90662000D01*
X191770000Y-114300000D02*
X191770000Y-93202000D01*
X191770000Y-93202000D02*
X189230000Y-90662000D01*
X189230000Y-114300000D02*
X189230000Y-116062000D01*
X191770000Y-139700000D02*
X191770000Y-118602000D01*
X191770000Y-118602000D02*
X189230000Y-116062000D01*
X189230000Y-139700000D02*
X189230000Y-141462000D01*
X191770000Y-165100000D02*
X191770000Y-144002000D01*
X191770000Y-144002000D02*
X189230000Y-141462000D01*
X189230000Y-165100000D02*
X189230000Y-166862000D01*
X191770000Y-190500000D02*
X191770000Y-169402000D01*
X191770000Y-169402000D02*
X189230000Y-166862000D01*
X189230000Y-190500000D02*
X189230000Y-192262000D01*
X191770000Y-215900000D02*
X191770000Y-194802000D01*
X191770000Y-194802000D02*
X189230000Y-192262000D01*
X189230000Y-215900000D02*
X189230000Y-217662000D01*
X191770000Y-241300000D02*
X191770000Y-220202000D01*
X191770000Y-220202000D02*
X189230000Y-217662000D01*
X189230000Y-241300000D02*
X189230000Y-243062000D01*
X191770000Y-266700000D02*
X191770000Y-245602000D01*
X191770000Y-245602000D02*
X189230000Y-243062000D01*
X189230000Y-266700000D02*
X189230000Y-268462000D01*
X191770000Y-292100000D02*
X191770000Y-271002000D01*
X191770000Y-271002000D02*
X189230000Y-268462000D01*
X214630000Y-63500000D02*
X214630000Y-65262000D01*
X217170000Y-88900000D02*
X217170000Y-67802000D01*
X217170000Y-67802000D02*
X214630000Y-65262000D01*
X214630000Y-88900000D02*
X214630000Y-90662000D01*
X217170000Y-114300000D02*
X217170000Y-93202000D01*
X217170000Y-93202000D02*
X214630000Y-90662000D01*
X214630000Y-114300000D02*
X214630000Y-116062000D01*
X217170000Y-139700000D02*
X217170000Y-118602000D01*
X217170000Y-118602000D02*
X214630000Y-116062000D01*
X214630000Y-139700000D02*
X214630000Y-141462000D01*
X217170000Y-165100000D02*
X217170000Y-144002000D01*
X217170000Y-144002000D02*
X214630000Y-141462000D01*
X214630000Y-165100000D02*
X214630000Y-166862000D01*
X217170000Y-190500000D02*
X217170000Y-169402000D01*
X217170000Y-169402000D02*
X214630000Y-166862000D01*
X214630000Y-190500000D02*
X214630000Y-192262000D01*
X217170000Y-215900000D02*
X217170000Y-194802000D01*
X217170000Y-194802000D02*
X214630000Y-192262000D01*
X214630000Y-215900000D02*
X214630000Y-217662000D01*
X217170000Y-241300000D02*
X217170000Y-220202000D01*
X217170000Y-220202000D02*
X214630000Y-217662000D01*
X214630000Y-241300000D02*
X214630000Y-243062000D01*
X217170000Y-266700000D02*
X217170000Y-245602000D01*
X217170000Y-245602000D02*
X214630000Y-243062000D01*
X214630000Y-266700000D02*
X214630000Y-268462000D01*
X217170000Y-292100000D02*
X217170000Y-271002000D01*
X217170000Y-271002000D02*
X214630000Y-268462000D01*
X240030000Y-63500000D02*
X240030000Y-65262000D01*
X242570000Y-88900000D02*
X242570000Y-67802000D01*
X242570000Y-67802000D02*
X240030000Y-65262000D01*
X240030000Y-88900000D02*
X240030000Y-90662000D01*
X242570000Y-114300000D02*
X242570000Y-93202000D01*
X242570000Y-93202000D02*
X240030000Y-90662000D01*
X240030000Y-114300000D02*
X240030000Y-116062000D01*
X242570000Y-139700000D02*
X242570000Y-118602000D01*
X242570000Y-118602000D02*
X240030000Y-116062000D01*
X240030000Y-139700000D02*
X240030000Y-141462000D01*
X242570000Y-165100000D02*
X242570000Y-144002000D01*
X242570000Y-144002000D02*
X240030000Y-141462000D01*
X240030000Y-165100000D02*
X240030000Y-166862000D01*
X242570000Y-190500000D02*
X242570000Y-169402000D01*
X242570000Y-169402000D02*
X240030000Y-166862000D01*
X240030000Y-190500000D02*
X240030000Y-192262000D01*
X242570000Y-215900000D02*
X242570000Y-194802000D01*
X242570000Y-194802000D02*
X240030000Y-192262000D01*
X240030000Y-215900000D02*
X240030000Y-217662000D01*
X242570000Y-241300000D02*
X242570000Y-220202000D01*
X242570000Y-220202000D02*
X240030000Y-217662000D01*
X240030000Y-241300000D02*
X240030000Y-243062000D01*
X242570000Y-266700000D02*
X242570000Y-245602000D01*
X242570000Y-245602000D02*
X240030000Y-243062000D01*
X240030000Y-266700000D02*
X240030000Y-268462000D01*
X242570000Y-292100000D02*
X242570000Y-271002000D01*
X242570000Y-271002000D02*
X240030000Y-268462000D01*
X265430000Y-63500000D02*
X265430000Y-65262000D01*
X267970000Y-88900000D02*
X267970000Y-67802000D01*
X267970000Y-67802000D02*
X265430000Y-65262000D01*
X265430000Y-88900000D02*
X265430000Y-90662000D01*
X267970000Y-114300000D02*
X267970000Y-93202000D01*
X267970000Y-93202000D02*
X265430000Y-90662000D01*
X265430000Y-114300000D02*
X265430000Y-116062000D01*
X267970000Y-139700000D02*
X267970000Y-118602000D01*
X267970000Y-118602000D02*
X265430000Y-116062000D01*
X265430000Y-139700000D02*
X265430000Y-141462000D01*
X267970000Y-165100000D02*
X267970000Y-144002000D01*
X267970000Y-144002000D02*
X265430000Y-141462000D01*
X265430000Y-165100000D02*
X265430000Y-166862000D01*
X267970000Y-190500000D02*
X267970000Y-169402000D01*
X267970000Y-169402000D02*
X265430000Y-166862000D01*
X265430000Y-190500000D02*
X265430000Y-192262000D01*
X267970000Y-215900000D02*
X267970000Y-194802000D01*
X267970000Y-194802000D02*
X265430000Y-192262000D01*
X265430000Y-215900000D02*
X265430000Y-217662000D01*
X267970000Y-241300000D02*
X267970000Y-220202000D01*
X267970000Y-220202000D02*
X265430000Y-217662000D01*
X265430000Y-241300000D02*
X265430000Y-243062000D01*
X267970000Y-266700000D02*
X267970000Y-245602000D01*
X267970000Y-245602000D02*
X265430000Y-243062000D01*
X265430000Y-266700000D02*
X265430000Y-268462000D01*
X267970000Y-292100000D02*
X267970000Y-271002000D01*
X267970000Y-271002000D02*
X265430000Y-268462000D01*
X290830000Y-88900000D02*
X290830000Y-90662000D01*
X293370000Y-114300000D02*
X293370000Y-93202000D01*
X293370000Y-93202000D02*
X290830000Y-90662000D01*
X290830000Y-114300000D02*
X290830000Y-116062000D01*
X293370000Y-139700000D02*
X293370000Y-118602000D01*
X293370000Y-118602000D02*
X290830000Y-116062000D01*
X290830000Y-139700000D02*
X290830000Y-141462000D01*
X293370000Y-165100000D02*
X293370000Y-144002000D01*
X293370000Y-144002000D02*
X290830000Y-141462000D01*
X290830000Y-165100000D02*
X290830000Y-166862000D01*
X293370000Y-190500000D02*
X293370000Y-169402000D01*
X293370000Y-169402000D02*
X290830000Y-166862000D01*
X290830000Y-190500000D02*
X290830000Y-192262000D01*
X293370000Y-215900000D02*
X293370000Y-194802000D01*
X293370000Y-194802000D02*
X290830000Y-192262000D01*
X290830000Y-215900000D02*
X290830000Y-217662000D01*
X293370000Y-241300000D02*
X293370000Y-220202000D01*
X293370000Y-220202000D02*
X290830000Y-217662000D01*
X290830000Y-241300000D02*
X290830000Y-243062000D01*
X293370000Y-266700000D02*
X293370000Y-245602000D01*
X293370000Y-245602000D02*
X290830000Y-243062000D01*
X290830000Y-266700000D02*
X290830000Y-268462000D01*
X293370000Y-292100000D02*
X293370000Y-271002000D01*
X293370000Y-271002000D02*
X290830000Y-268462000D01*
X78740000Y-99060000D02*
X76835000Y-99060000D01*
X78740000Y-99060000D02*
X80645000Y-99060000D01*
X78740000Y-104140000D02*
X80645000Y-104140000D01*
X80645000Y-104140000D02*
X80645000Y-99060000D01*
X76835000Y-99060000D02*
X76835000Y-80962500D01*
X76835000Y-80962500D02*
X74612500Y-78740000D01*
X73660000Y-73660000D02*
X75565000Y-73660000D01*
X74612500Y-78740000D02*
X75565000Y-77787500D01*
X75565000Y-77787500D02*
X75565000Y-73660000D01*
X73660000Y-78740000D02*
X74612500Y-78740000D01*
X256540000Y-78740000D02*
X258445000Y-78740000D01*
X257329900Y-300990000D02*
X257329900Y-299328000D01*
X257329900Y-299328000D02*
X259409800Y-297248100D01*
X259409800Y-297248100D02*
X259409800Y-79704800D01*
X259409800Y-79704800D02*
X258445000Y-78740000D01*
X129540000Y-73660000D02*
X131445000Y-73660000D01*
X129540000Y-78740000D02*
X131445000Y-78740000D01*
X131445000Y-78740000D02*
X131445000Y-73660000D01*
X205740000Y-73660000D02*
X207645000Y-73660000D01*
X205740000Y-78740000D02*
X207645000Y-78740000D01*
X207645000Y-78740000D02*
X207645000Y-73660000D01*
X78740000Y-124460000D02*
X76835000Y-124460000D01*
X78740000Y-124460000D02*
X80645000Y-124460000D01*
X78740000Y-129540000D02*
X80645000Y-129540000D01*
X80645000Y-129540000D02*
X80645000Y-124460000D01*
X76835000Y-124460000D02*
X76835000Y-106362500D01*
X76835000Y-106362500D02*
X74612500Y-104140000D01*
X73660000Y-99060000D02*
X75565000Y-99060000D01*
X74612500Y-104140000D02*
X75565000Y-103187500D01*
X75565000Y-103187500D02*
X75565000Y-99060000D01*
X73660000Y-104140000D02*
X74612500Y-104140000D01*
X78740000Y-149860000D02*
X76835000Y-149860000D01*
X78740000Y-149860000D02*
X80645000Y-149860000D01*
X78740000Y-154940000D02*
X80645000Y-154940000D01*
X80645000Y-154940000D02*
X80645000Y-149860000D01*
X76835000Y-149860000D02*
X76835000Y-131762500D01*
X76835000Y-131762500D02*
X74612500Y-129540000D01*
X73660000Y-124460000D02*
X75565000Y-124460000D01*
X74612500Y-129540000D02*
X75565000Y-128587500D01*
X75565000Y-128587500D02*
X75565000Y-124460000D01*
X73660000Y-129540000D02*
X74612500Y-129540000D01*
X78740000Y-175260000D02*
X76835000Y-175260000D01*
X78740000Y-175260000D02*
X80645000Y-175260000D01*
X78740000Y-180340000D02*
X80645000Y-180340000D01*
X80645000Y-180340000D02*
X80645000Y-175260000D01*
X76835000Y-175260000D02*
X76835000Y-157162500D01*
X76835000Y-157162500D02*
X74612500Y-154940000D01*
X73660000Y-149860000D02*
X75565000Y-149860000D01*
X74612500Y-154940000D02*
X75565000Y-153987500D01*
X75565000Y-153987500D02*
X75565000Y-149860000D01*
X73660000Y-154940000D02*
X74612500Y-154940000D01*
X78740000Y-200660000D02*
X76835000Y-200660000D01*
X78740000Y-200660000D02*
X80645000Y-200660000D01*
X78740000Y-205740000D02*
X80645000Y-205740000D01*
X80645000Y-205740000D02*
X80645000Y-200660000D01*
X76835000Y-200660000D02*
X76835000Y-182562500D01*
X76835000Y-182562500D02*
X74612500Y-180340000D01*
X73660000Y-175260000D02*
X75565000Y-175260000D01*
X74612500Y-180340000D02*
X75565000Y-179387500D01*
X75565000Y-179387500D02*
X75565000Y-175260000D01*
X73660000Y-180340000D02*
X74612500Y-180340000D01*
X78740000Y-226060000D02*
X76835000Y-226060000D01*
X78740000Y-226060000D02*
X80645000Y-226060000D01*
X78740000Y-231140000D02*
X80645000Y-231140000D01*
X80645000Y-231140000D02*
X80645000Y-226060000D01*
X76835000Y-226060000D02*
X76835000Y-207962500D01*
X76835000Y-207962500D02*
X74612500Y-205740000D01*
X73660000Y-200660000D02*
X75565000Y-200660000D01*
X74612500Y-205740000D02*
X75565000Y-204787500D01*
X75565000Y-204787500D02*
X75565000Y-200660000D01*
X73660000Y-205740000D02*
X74612500Y-205740000D01*
X78740000Y-251460000D02*
X76835000Y-251460000D01*
X78740000Y-251460000D02*
X80645000Y-251460000D01*
X78740000Y-256540000D02*
X80645000Y-256540000D01*
X80645000Y-256540000D02*
X80645000Y-251460000D01*
X76835000Y-251460000D02*
X76835000Y-233362500D01*
X76835000Y-233362500D02*
X74612500Y-231140000D01*
X73660000Y-226060000D02*
X75565000Y-226060000D01*
X74612500Y-231140000D02*
X75565000Y-230187500D01*
X75565000Y-230187500D02*
X75565000Y-226060000D01*
X73660000Y-231140000D02*
X74612500Y-231140000D01*
X78740000Y-276860000D02*
X76835000Y-276860000D01*
X78740000Y-276860000D02*
X80645000Y-276860000D01*
X78740000Y-281940000D02*
X80645000Y-281940000D01*
X80645000Y-281940000D02*
X80645000Y-276860000D01*
X76835000Y-276860000D02*
X76835000Y-258762500D01*
X76835000Y-258762500D02*
X74612500Y-256540000D01*
X73660000Y-251460000D02*
X75565000Y-251460000D01*
X74612500Y-256540000D02*
X75565000Y-255587500D01*
X75565000Y-255587500D02*
X75565000Y-251460000D01*
X73660000Y-256540000D02*
X74612500Y-256540000D01*
X276860000Y-281940000D02*
X274955000Y-281940000D01*
X260830100Y-300990000D02*
X261327300Y-300990000D01*
X261327300Y-300990000D02*
X274955000Y-287362300D01*
X274955000Y-287362300D02*
X274955000Y-281940000D01*
X104140000Y-99060000D02*
X102235000Y-99060000D01*
X104140000Y-99060000D02*
X106045000Y-99060000D01*
X104140000Y-104140000D02*
X106045000Y-104140000D01*
X106045000Y-104140000D02*
X106045000Y-99060000D01*
X102235000Y-99060000D02*
X102235000Y-80962500D01*
X102235000Y-80962500D02*
X100012500Y-78740000D01*
X99060000Y-73660000D02*
X100965000Y-73660000D01*
X100012500Y-78740000D02*
X100965000Y-77787500D01*
X100965000Y-77787500D02*
X100965000Y-73660000D01*
X99060000Y-78740000D02*
X100012500Y-78740000D01*
X104140000Y-124460000D02*
X102235000Y-124460000D01*
X104140000Y-124460000D02*
X106045000Y-124460000D01*
X104140000Y-129540000D02*
X106045000Y-129540000D01*
X106045000Y-129540000D02*
X106045000Y-124460000D01*
X102235000Y-124460000D02*
X102235000Y-106362500D01*
X102235000Y-106362500D02*
X100012500Y-104140000D01*
X99060000Y-99060000D02*
X100965000Y-99060000D01*
X100012500Y-104140000D02*
X100965000Y-103187500D01*
X100965000Y-103187500D02*
X100965000Y-99060000D01*
X99060000Y-104140000D02*
X100012500Y-104140000D01*
X104140000Y-149860000D02*
X102235000Y-149860000D01*
X104140000Y-149860000D02*
X106045000Y-149860000D01*
X104140000Y-154940000D02*
X106045000Y-154940000D01*
X106045000Y-154940000D02*
X106045000Y-149860000D01*
X102235000Y-149860000D02*
X102235000Y-131762500D01*
X102235000Y-131762500D02*
X100012500Y-129540000D01*
X99060000Y-124460000D02*
X100965000Y-124460000D01*
X100012500Y-129540000D02*
X100965000Y-128587500D01*
X100965000Y-128587500D02*
X100965000Y-124460000D01*
X99060000Y-129540000D02*
X100012500Y-129540000D01*
X104140000Y-175260000D02*
X102235000Y-175260000D01*
X104140000Y-175260000D02*
X106045000Y-175260000D01*
X104140000Y-180340000D02*
X106045000Y-180340000D01*
X106045000Y-180340000D02*
X106045000Y-175260000D01*
X102235000Y-175260000D02*
X102235000Y-157162500D01*
X102235000Y-157162500D02*
X100012500Y-154940000D01*
X99060000Y-149860000D02*
X100965000Y-149860000D01*
X100012500Y-154940000D02*
X100965000Y-153987500D01*
X100965000Y-153987500D02*
X100965000Y-149860000D01*
X99060000Y-154940000D02*
X100012500Y-154940000D01*
X104140000Y-200660000D02*
X102235000Y-200660000D01*
X104140000Y-200660000D02*
X106045000Y-200660000D01*
X104140000Y-205740000D02*
X106045000Y-205740000D01*
X106045000Y-205740000D02*
X106045000Y-200660000D01*
X102235000Y-200660000D02*
X102235000Y-182562500D01*
X102235000Y-182562500D02*
X100012500Y-180340000D01*
X99060000Y-175260000D02*
X100965000Y-175260000D01*
X100012500Y-180340000D02*
X100965000Y-179387500D01*
X100965000Y-179387500D02*
X100965000Y-175260000D01*
X99060000Y-180340000D02*
X100012500Y-180340000D01*
X104140000Y-226060000D02*
X102235000Y-226060000D01*
X104140000Y-226060000D02*
X106045000Y-226060000D01*
X104140000Y-231140000D02*
X106045000Y-231140000D01*
X106045000Y-231140000D02*
X106045000Y-226060000D01*
X102235000Y-226060000D02*
X102235000Y-207962500D01*
X102235000Y-207962500D02*
X100012500Y-205740000D01*
X99060000Y-200660000D02*
X100965000Y-200660000D01*
X100012500Y-205740000D02*
X100965000Y-204787500D01*
X100965000Y-204787500D02*
X100965000Y-200660000D01*
X99060000Y-205740000D02*
X100012500Y-205740000D01*
X104140000Y-251460000D02*
X102235000Y-251460000D01*
X104140000Y-251460000D02*
X106045000Y-251460000D01*
X104140000Y-256540000D02*
X106045000Y-256540000D01*
X106045000Y-256540000D02*
X106045000Y-251460000D01*
X102235000Y-251460000D02*
X102235000Y-233362500D01*
X102235000Y-233362500D02*
X100012500Y-231140000D01*
X99060000Y-226060000D02*
X100965000Y-226060000D01*
X100012500Y-231140000D02*
X100965000Y-230187500D01*
X100965000Y-230187500D02*
X100965000Y-226060000D01*
X99060000Y-231140000D02*
X100012500Y-231140000D01*
X104140000Y-276860000D02*
X102235000Y-276860000D01*
X104140000Y-276860000D02*
X106045000Y-276860000D01*
X104140000Y-281940000D02*
X106045000Y-281940000D01*
X106045000Y-281940000D02*
X106045000Y-276860000D01*
X102235000Y-276860000D02*
X102235000Y-258762500D01*
X102235000Y-258762500D02*
X100012500Y-256540000D01*
X99060000Y-251460000D02*
X100965000Y-251460000D01*
X100012500Y-256540000D02*
X100965000Y-255587500D01*
X100965000Y-255587500D02*
X100965000Y-251460000D01*
X99060000Y-256540000D02*
X100012500Y-256540000D01*
X129540000Y-99060000D02*
X127635000Y-99060000D01*
X129540000Y-99060000D02*
X131445000Y-99060000D01*
X129540000Y-104140000D02*
X131445000Y-104140000D01*
X131445000Y-104140000D02*
X131445000Y-99060000D01*
X127635000Y-99060000D02*
X127635000Y-80962500D01*
X127635000Y-80962500D02*
X125412500Y-78740000D01*
X124460000Y-73660000D02*
X126365000Y-73660000D01*
X125412500Y-78740000D02*
X126365000Y-77787500D01*
X126365000Y-77787500D02*
X126365000Y-73660000D01*
X124460000Y-78740000D02*
X125412500Y-78740000D01*
X129540000Y-124460000D02*
X127635000Y-124460000D01*
X129540000Y-124460000D02*
X131445000Y-124460000D01*
X129540000Y-129540000D02*
X131445000Y-129540000D01*
X131445000Y-129540000D02*
X131445000Y-124460000D01*
X127635000Y-124460000D02*
X127635000Y-106362500D01*
X127635000Y-106362500D02*
X125412500Y-104140000D01*
X124460000Y-99060000D02*
X126365000Y-99060000D01*
X125412500Y-104140000D02*
X126365000Y-103187500D01*
X126365000Y-103187500D02*
X126365000Y-99060000D01*
X124460000Y-104140000D02*
X125412500Y-104140000D01*
X129540000Y-149860000D02*
X127635000Y-149860000D01*
X129540000Y-149860000D02*
X131445000Y-149860000D01*
X129540000Y-154940000D02*
X131445000Y-154940000D01*
X131445000Y-154940000D02*
X131445000Y-149860000D01*
X127635000Y-149860000D02*
X127635000Y-131762500D01*
X127635000Y-131762500D02*
X125412500Y-129540000D01*
X124460000Y-124460000D02*
X126365000Y-124460000D01*
X125412500Y-129540000D02*
X126365000Y-128587500D01*
X126365000Y-128587500D02*
X126365000Y-124460000D01*
X124460000Y-129540000D02*
X125412500Y-129540000D01*
X129540000Y-175260000D02*
X127635000Y-175260000D01*
X129540000Y-175260000D02*
X131445000Y-175260000D01*
X129540000Y-180340000D02*
X131445000Y-180340000D01*
X131445000Y-180340000D02*
X131445000Y-175260000D01*
X127635000Y-175260000D02*
X127635000Y-157162500D01*
X127635000Y-157162500D02*
X125412500Y-154940000D01*
X124460000Y-149860000D02*
X126365000Y-149860000D01*
X125412500Y-154940000D02*
X126365000Y-153987500D01*
X126365000Y-153987500D02*
X126365000Y-149860000D01*
X124460000Y-154940000D02*
X125412500Y-154940000D01*
X129540000Y-200660000D02*
X127635000Y-200660000D01*
X129540000Y-200660000D02*
X131445000Y-200660000D01*
X129540000Y-205740000D02*
X131445000Y-205740000D01*
X131445000Y-205740000D02*
X131445000Y-200660000D01*
X127635000Y-200660000D02*
X127635000Y-182562500D01*
X127635000Y-182562500D02*
X125412500Y-180340000D01*
X124460000Y-175260000D02*
X126365000Y-175260000D01*
X125412500Y-180340000D02*
X126365000Y-179387500D01*
X126365000Y-179387500D02*
X126365000Y-175260000D01*
X124460000Y-180340000D02*
X125412500Y-180340000D01*
X129540000Y-226060000D02*
X127635000Y-226060000D01*
X129540000Y-226060000D02*
X131445000Y-226060000D01*
X129540000Y-231140000D02*
X131445000Y-231140000D01*
X131445000Y-231140000D02*
X131445000Y-226060000D01*
X127635000Y-226060000D02*
X127635000Y-207962500D01*
X127635000Y-207962500D02*
X125412500Y-205740000D01*
X124460000Y-200660000D02*
X126365000Y-200660000D01*
X125412500Y-205740000D02*
X126365000Y-204787500D01*
X126365000Y-204787500D02*
X126365000Y-200660000D01*
X124460000Y-205740000D02*
X125412500Y-205740000D01*
X129540000Y-251460000D02*
X127635000Y-251460000D01*
X129540000Y-251460000D02*
X131445000Y-251460000D01*
X129540000Y-256540000D02*
X131445000Y-256540000D01*
X131445000Y-256540000D02*
X131445000Y-251460000D01*
X127635000Y-251460000D02*
X127635000Y-233362500D01*
X127635000Y-233362500D02*
X125412500Y-231140000D01*
X124460000Y-226060000D02*
X126365000Y-226060000D01*
X125412500Y-231140000D02*
X126365000Y-230187500D01*
X126365000Y-230187500D02*
X126365000Y-226060000D01*
X124460000Y-231140000D02*
X125412500Y-231140000D01*
X129540000Y-276860000D02*
X127635000Y-276860000D01*
X129540000Y-276860000D02*
X131445000Y-276860000D01*
X129540000Y-281940000D02*
X131445000Y-281940000D01*
X131445000Y-281940000D02*
X131445000Y-276860000D01*
X127635000Y-276860000D02*
X127635000Y-258762500D01*
X127635000Y-258762500D02*
X125412500Y-256540000D01*
X124460000Y-251460000D02*
X126365000Y-251460000D01*
X125412500Y-256540000D02*
X126365000Y-255587500D01*
X126365000Y-255587500D02*
X126365000Y-251460000D01*
X124460000Y-256540000D02*
X125412500Y-256540000D01*
X154940000Y-99060000D02*
X153035000Y-99060000D01*
X154940000Y-99060000D02*
X156845000Y-99060000D01*
X154940000Y-104140000D02*
X156845000Y-104140000D01*
X156845000Y-104140000D02*
X156845000Y-99060000D01*
X153035000Y-99060000D02*
X153035000Y-80962500D01*
X153035000Y-80962500D02*
X150812500Y-78740000D01*
X149860000Y-73660000D02*
X151765000Y-73660000D01*
X150812500Y-78740000D02*
X151765000Y-77787500D01*
X151765000Y-77787500D02*
X151765000Y-73660000D01*
X149860000Y-78740000D02*
X150812500Y-78740000D01*
X154940000Y-124460000D02*
X153035000Y-124460000D01*
X154940000Y-124460000D02*
X156845000Y-124460000D01*
X154940000Y-129540000D02*
X156845000Y-129540000D01*
X156845000Y-129540000D02*
X156845000Y-124460000D01*
X153035000Y-124460000D02*
X153035000Y-106362500D01*
X153035000Y-106362500D02*
X150812500Y-104140000D01*
X149860000Y-99060000D02*
X151765000Y-99060000D01*
X150812500Y-104140000D02*
X151765000Y-103187500D01*
X151765000Y-103187500D02*
X151765000Y-99060000D01*
X149860000Y-104140000D02*
X150812500Y-104140000D01*
X154940000Y-149860000D02*
X153035000Y-149860000D01*
X154940000Y-149860000D02*
X156845000Y-149860000D01*
X154940000Y-154940000D02*
X156845000Y-154940000D01*
X156845000Y-154940000D02*
X156845000Y-149860000D01*
X153035000Y-149860000D02*
X153035000Y-131762500D01*
X153035000Y-131762500D02*
X150812500Y-129540000D01*
X149860000Y-124460000D02*
X151765000Y-124460000D01*
X150812500Y-129540000D02*
X151765000Y-128587500D01*
X151765000Y-128587500D02*
X151765000Y-124460000D01*
X149860000Y-129540000D02*
X150812500Y-129540000D01*
X154940000Y-175260000D02*
X153035000Y-175260000D01*
X154940000Y-175260000D02*
X156845000Y-175260000D01*
X154940000Y-180340000D02*
X156845000Y-180340000D01*
X156845000Y-180340000D02*
X156845000Y-175260000D01*
X153035000Y-175260000D02*
X153035000Y-157162500D01*
X153035000Y-157162500D02*
X150812500Y-154940000D01*
X149860000Y-149860000D02*
X151765000Y-149860000D01*
X150812500Y-154940000D02*
X151765000Y-153987500D01*
X151765000Y-153987500D02*
X151765000Y-149860000D01*
X149860000Y-154940000D02*
X150812500Y-154940000D01*
X154940000Y-200660000D02*
X153035000Y-200660000D01*
X154940000Y-200660000D02*
X156845000Y-200660000D01*
X154940000Y-205740000D02*
X156845000Y-205740000D01*
X156845000Y-205740000D02*
X156845000Y-200660000D01*
X153035000Y-200660000D02*
X153035000Y-182562500D01*
X153035000Y-182562500D02*
X150812500Y-180340000D01*
X149860000Y-175260000D02*
X151765000Y-175260000D01*
X150812500Y-180340000D02*
X151765000Y-179387500D01*
X151765000Y-179387500D02*
X151765000Y-175260000D01*
X149860000Y-180340000D02*
X150812500Y-180340000D01*
X154940000Y-226060000D02*
X153035000Y-226060000D01*
X154940000Y-226060000D02*
X156845000Y-226060000D01*
X154940000Y-231140000D02*
X156845000Y-231140000D01*
X156845000Y-231140000D02*
X156845000Y-226060000D01*
X153035000Y-226060000D02*
X153035000Y-207962500D01*
X153035000Y-207962500D02*
X150812500Y-205740000D01*
X149860000Y-200660000D02*
X151765000Y-200660000D01*
X150812500Y-205740000D02*
X151765000Y-204787500D01*
X151765000Y-204787500D02*
X151765000Y-200660000D01*
X149860000Y-205740000D02*
X150812500Y-205740000D01*
X154940000Y-251460000D02*
X153035000Y-251460000D01*
X154940000Y-251460000D02*
X156845000Y-251460000D01*
X154940000Y-256540000D02*
X156845000Y-256540000D01*
X156845000Y-256540000D02*
X156845000Y-251460000D01*
X153035000Y-251460000D02*
X153035000Y-233362500D01*
X153035000Y-233362500D02*
X150812500Y-231140000D01*
X149860000Y-226060000D02*
X151765000Y-226060000D01*
X150812500Y-231140000D02*
X151765000Y-230187500D01*
X151765000Y-230187500D02*
X151765000Y-226060000D01*
X149860000Y-231140000D02*
X150812500Y-231140000D01*
X154940000Y-276860000D02*
X153035000Y-276860000D01*
X154940000Y-276860000D02*
X156845000Y-276860000D01*
X154940000Y-281940000D02*
X156845000Y-281940000D01*
X156845000Y-281940000D02*
X156845000Y-276860000D01*
X153035000Y-276860000D02*
X153035000Y-258762500D01*
X153035000Y-258762500D02*
X150812500Y-256540000D01*
X149860000Y-251460000D02*
X151765000Y-251460000D01*
X150812500Y-256540000D02*
X151765000Y-255587500D01*
X151765000Y-255587500D02*
X151765000Y-251460000D01*
X149860000Y-256540000D02*
X150812500Y-256540000D01*
X180340000Y-99060000D02*
X178435000Y-99060000D01*
X180340000Y-99060000D02*
X182245000Y-99060000D01*
X180340000Y-104140000D02*
X182245000Y-104140000D01*
X182245000Y-104140000D02*
X182245000Y-99060000D01*
X178435000Y-99060000D02*
X178435000Y-80962500D01*
X178435000Y-80962500D02*
X176212500Y-78740000D01*
X175260000Y-73660000D02*
X177165000Y-73660000D01*
X176212500Y-78740000D02*
X177165000Y-77787500D01*
X177165000Y-77787500D02*
X177165000Y-73660000D01*
X175260000Y-78740000D02*
X176212500Y-78740000D01*
X180340000Y-124460000D02*
X178435000Y-124460000D01*
X180340000Y-124460000D02*
X182245000Y-124460000D01*
X180340000Y-129540000D02*
X182245000Y-129540000D01*
X182245000Y-129540000D02*
X182245000Y-124460000D01*
X178435000Y-124460000D02*
X178435000Y-106362500D01*
X178435000Y-106362500D02*
X176212500Y-104140000D01*
X175260000Y-99060000D02*
X177165000Y-99060000D01*
X176212500Y-104140000D02*
X177165000Y-103187500D01*
X177165000Y-103187500D02*
X177165000Y-99060000D01*
X175260000Y-104140000D02*
X176212500Y-104140000D01*
X180340000Y-149860000D02*
X178435000Y-149860000D01*
X180340000Y-149860000D02*
X182245000Y-149860000D01*
X180340000Y-154940000D02*
X182245000Y-154940000D01*
X182245000Y-154940000D02*
X182245000Y-149860000D01*
X178435000Y-149860000D02*
X178435000Y-131762500D01*
X178435000Y-131762500D02*
X176212500Y-129540000D01*
X175260000Y-124460000D02*
X177165000Y-124460000D01*
X176212500Y-129540000D02*
X177165000Y-128587500D01*
X177165000Y-128587500D02*
X177165000Y-124460000D01*
X175260000Y-129540000D02*
X176212500Y-129540000D01*
X180340000Y-175260000D02*
X178435000Y-175260000D01*
X180340000Y-175260000D02*
X182245000Y-175260000D01*
X180340000Y-180340000D02*
X182245000Y-180340000D01*
X182245000Y-180340000D02*
X182245000Y-175260000D01*
X178435000Y-175260000D02*
X178435000Y-157162500D01*
X178435000Y-157162500D02*
X176212500Y-154940000D01*
X175260000Y-149860000D02*
X177165000Y-149860000D01*
X176212500Y-154940000D02*
X177165000Y-153987500D01*
X177165000Y-153987500D02*
X177165000Y-149860000D01*
X175260000Y-154940000D02*
X176212500Y-154940000D01*
X180340000Y-200660000D02*
X178435000Y-200660000D01*
X180340000Y-200660000D02*
X182245000Y-200660000D01*
X180340000Y-205740000D02*
X182245000Y-205740000D01*
X182245000Y-205740000D02*
X182245000Y-200660000D01*
X178435000Y-200660000D02*
X178435000Y-182562500D01*
X178435000Y-182562500D02*
X176212500Y-180340000D01*
X175260000Y-175260000D02*
X177165000Y-175260000D01*
X176212500Y-180340000D02*
X177165000Y-179387500D01*
X177165000Y-179387500D02*
X177165000Y-175260000D01*
X175260000Y-180340000D02*
X176212500Y-180340000D01*
X180340000Y-226060000D02*
X178435000Y-226060000D01*
X180340000Y-226060000D02*
X182245000Y-226060000D01*
X180340000Y-231140000D02*
X182245000Y-231140000D01*
X182245000Y-231140000D02*
X182245000Y-226060000D01*
X178435000Y-226060000D02*
X178435000Y-207962500D01*
X178435000Y-207962500D02*
X176212500Y-205740000D01*
X175260000Y-200660000D02*
X177165000Y-200660000D01*
X176212500Y-205740000D02*
X177165000Y-204787500D01*
X177165000Y-204787500D02*
X177165000Y-200660000D01*
X175260000Y-205740000D02*
X176212500Y-205740000D01*
X180340000Y-251460000D02*
X178435000Y-251460000D01*
X180340000Y-251460000D02*
X182245000Y-251460000D01*
X180340000Y-256540000D02*
X182245000Y-256540000D01*
X182245000Y-256540000D02*
X182245000Y-251460000D01*
X178435000Y-251460000D02*
X178435000Y-233362500D01*
X178435000Y-233362500D02*
X176212500Y-231140000D01*
X175260000Y-226060000D02*
X177165000Y-226060000D01*
X176212500Y-231140000D02*
X177165000Y-230187500D01*
X177165000Y-230187500D02*
X177165000Y-226060000D01*
X175260000Y-231140000D02*
X176212500Y-231140000D01*
X180340000Y-276860000D02*
X178435000Y-276860000D01*
X180340000Y-276860000D02*
X182245000Y-276860000D01*
X180340000Y-281940000D02*
X182245000Y-281940000D01*
X182245000Y-281940000D02*
X182245000Y-276860000D01*
X178435000Y-276860000D02*
X178435000Y-258762500D01*
X178435000Y-258762500D02*
X176212500Y-256540000D01*
X175260000Y-251460000D02*
X177165000Y-251460000D01*
X176212500Y-256540000D02*
X177165000Y-255587500D01*
X177165000Y-255587500D02*
X177165000Y-251460000D01*
X175260000Y-256540000D02*
X176212500Y-256540000D01*
X205740000Y-99060000D02*
X203835000Y-99060000D01*
X205740000Y-99060000D02*
X207645000Y-99060000D01*
X205740000Y-104140000D02*
X207645000Y-104140000D01*
X207645000Y-104140000D02*
X207645000Y-99060000D01*
X203835000Y-99060000D02*
X203835000Y-80962500D01*
X203835000Y-80962500D02*
X201612500Y-78740000D01*
X200660000Y-73660000D02*
X202565000Y-73660000D01*
X201612500Y-78740000D02*
X202565000Y-77787500D01*
X202565000Y-77787500D02*
X202565000Y-73660000D01*
X200660000Y-78740000D02*
X201612500Y-78740000D01*
X205740000Y-124460000D02*
X203835000Y-124460000D01*
X205740000Y-124460000D02*
X207645000Y-124460000D01*
X205740000Y-129540000D02*
X207645000Y-129540000D01*
X207645000Y-129540000D02*
X207645000Y-124460000D01*
X203835000Y-124460000D02*
X203835000Y-106362500D01*
X203835000Y-106362500D02*
X201612500Y-104140000D01*
X200660000Y-99060000D02*
X202565000Y-99060000D01*
X201612500Y-104140000D02*
X202565000Y-103187500D01*
X202565000Y-103187500D02*
X202565000Y-99060000D01*
X200660000Y-104140000D02*
X201612500Y-104140000D01*
X205740000Y-149860000D02*
X203835000Y-149860000D01*
X205740000Y-149860000D02*
X207645000Y-149860000D01*
X205740000Y-154940000D02*
X207645000Y-154940000D01*
X207645000Y-154940000D02*
X207645000Y-149860000D01*
X203835000Y-149860000D02*
X203835000Y-131762500D01*
X203835000Y-131762500D02*
X201612500Y-129540000D01*
X200660000Y-124460000D02*
X202565000Y-124460000D01*
X201612500Y-129540000D02*
X202565000Y-128587500D01*
X202565000Y-128587500D02*
X202565000Y-124460000D01*
X200660000Y-129540000D02*
X201612500Y-129540000D01*
X205740000Y-175260000D02*
X203835000Y-175260000D01*
X205740000Y-175260000D02*
X207645000Y-175260000D01*
X205740000Y-180340000D02*
X207645000Y-180340000D01*
X207645000Y-180340000D02*
X207645000Y-175260000D01*
X203835000Y-175260000D02*
X203835000Y-157162500D01*
X203835000Y-157162500D02*
X201612500Y-154940000D01*
X200660000Y-149860000D02*
X202565000Y-149860000D01*
X201612500Y-154940000D02*
X202565000Y-153987500D01*
X202565000Y-153987500D02*
X202565000Y-149860000D01*
X200660000Y-154940000D02*
X201612500Y-154940000D01*
X205740000Y-200660000D02*
X203835000Y-200660000D01*
X205740000Y-200660000D02*
X207645000Y-200660000D01*
X205740000Y-205740000D02*
X207645000Y-205740000D01*
X207645000Y-205740000D02*
X207645000Y-200660000D01*
X203835000Y-200660000D02*
X203835000Y-182562500D01*
X203835000Y-182562500D02*
X201612500Y-180340000D01*
X200660000Y-175260000D02*
X202565000Y-175260000D01*
X201612500Y-180340000D02*
X202565000Y-179387500D01*
X202565000Y-179387500D02*
X202565000Y-175260000D01*
X200660000Y-180340000D02*
X201612500Y-180340000D01*
X205740000Y-226060000D02*
X203835000Y-226060000D01*
X205740000Y-226060000D02*
X207645000Y-226060000D01*
X205740000Y-231140000D02*
X207645000Y-231140000D01*
X207645000Y-231140000D02*
X207645000Y-226060000D01*
X203835000Y-226060000D02*
X203835000Y-207962500D01*
X203835000Y-207962500D02*
X201612500Y-205740000D01*
X200660000Y-200660000D02*
X202565000Y-200660000D01*
X201612500Y-205740000D02*
X202565000Y-204787500D01*
X202565000Y-204787500D02*
X202565000Y-200660000D01*
X200660000Y-205740000D02*
X201612500Y-205740000D01*
X205740000Y-251460000D02*
X203835000Y-251460000D01*
X205740000Y-251460000D02*
X207645000Y-251460000D01*
X205740000Y-256540000D02*
X207645000Y-256540000D01*
X207645000Y-256540000D02*
X207645000Y-251460000D01*
X203835000Y-251460000D02*
X203835000Y-233362500D01*
X203835000Y-233362500D02*
X201612500Y-231140000D01*
X200660000Y-226060000D02*
X202565000Y-226060000D01*
X201612500Y-231140000D02*
X202565000Y-230187500D01*
X202565000Y-230187500D02*
X202565000Y-226060000D01*
X200660000Y-231140000D02*
X201612500Y-231140000D01*
X205740000Y-276860000D02*
X203835000Y-276860000D01*
X205740000Y-276860000D02*
X207645000Y-276860000D01*
X205740000Y-281940000D02*
X207645000Y-281940000D01*
X207645000Y-281940000D02*
X207645000Y-276860000D01*
X203835000Y-276860000D02*
X203835000Y-258762500D01*
X203835000Y-258762500D02*
X201612500Y-256540000D01*
X200660000Y-251460000D02*
X202565000Y-251460000D01*
X201612500Y-256540000D02*
X202565000Y-255587500D01*
X202565000Y-255587500D02*
X202565000Y-251460000D01*
X200660000Y-256540000D02*
X201612500Y-256540000D01*
X231140000Y-99060000D02*
X229235000Y-99060000D01*
X231140000Y-99060000D02*
X233045000Y-99060000D01*
X231140000Y-104140000D02*
X233045000Y-104140000D01*
X233045000Y-104140000D02*
X233045000Y-99060000D01*
X229235000Y-99060000D02*
X229235000Y-80962500D01*
X229235000Y-80962500D02*
X227012500Y-78740000D01*
X226060000Y-73660000D02*
X227965000Y-73660000D01*
X227012500Y-78740000D02*
X227965000Y-77787500D01*
X227965000Y-77787500D02*
X227965000Y-73660000D01*
X226060000Y-78740000D02*
X227012500Y-78740000D01*
X231140000Y-124460000D02*
X229235000Y-124460000D01*
X231140000Y-124460000D02*
X233045000Y-124460000D01*
X231140000Y-129540000D02*
X233045000Y-129540000D01*
X233045000Y-129540000D02*
X233045000Y-124460000D01*
X229235000Y-124460000D02*
X229235000Y-106362500D01*
X229235000Y-106362500D02*
X227012500Y-104140000D01*
X226060000Y-99060000D02*
X227965000Y-99060000D01*
X227012500Y-104140000D02*
X227965000Y-103187500D01*
X227965000Y-103187500D02*
X227965000Y-99060000D01*
X226060000Y-104140000D02*
X227012500Y-104140000D01*
X231140000Y-149860000D02*
X229235000Y-149860000D01*
X231140000Y-149860000D02*
X233045000Y-149860000D01*
X231140000Y-154940000D02*
X233045000Y-154940000D01*
X233045000Y-154940000D02*
X233045000Y-149860000D01*
X229235000Y-149860000D02*
X229235000Y-131762500D01*
X229235000Y-131762500D02*
X227012500Y-129540000D01*
X226060000Y-124460000D02*
X227965000Y-124460000D01*
X227012500Y-129540000D02*
X227965000Y-128587500D01*
X227965000Y-128587500D02*
X227965000Y-124460000D01*
X226060000Y-129540000D02*
X227012500Y-129540000D01*
X231140000Y-175260000D02*
X229235000Y-175260000D01*
X231140000Y-175260000D02*
X233045000Y-175260000D01*
X231140000Y-180340000D02*
X233045000Y-180340000D01*
X233045000Y-180340000D02*
X233045000Y-175260000D01*
X229235000Y-175260000D02*
X229235000Y-157162500D01*
X229235000Y-157162500D02*
X227012500Y-154940000D01*
X226060000Y-149860000D02*
X227965000Y-149860000D01*
X227012500Y-154940000D02*
X227965000Y-153987500D01*
X227965000Y-153987500D02*
X227965000Y-149860000D01*
X226060000Y-154940000D02*
X227012500Y-154940000D01*
X231140000Y-200660000D02*
X229235000Y-200660000D01*
X231140000Y-200660000D02*
X233045000Y-200660000D01*
X231140000Y-205740000D02*
X233045000Y-205740000D01*
X233045000Y-205740000D02*
X233045000Y-200660000D01*
X229235000Y-200660000D02*
X229235000Y-182562500D01*
X229235000Y-182562500D02*
X227012500Y-180340000D01*
X226060000Y-175260000D02*
X227965000Y-175260000D01*
X227012500Y-180340000D02*
X227965000Y-179387500D01*
X227965000Y-179387500D02*
X227965000Y-175260000D01*
X226060000Y-180340000D02*
X227012500Y-180340000D01*
X231140000Y-226060000D02*
X229235000Y-226060000D01*
X231140000Y-226060000D02*
X233045000Y-226060000D01*
X231140000Y-231140000D02*
X233045000Y-231140000D01*
X233045000Y-231140000D02*
X233045000Y-226060000D01*
X229235000Y-226060000D02*
X229235000Y-207962500D01*
X229235000Y-207962500D02*
X227012500Y-205740000D01*
X226060000Y-200660000D02*
X227965000Y-200660000D01*
X227012500Y-205740000D02*
X227965000Y-204787500D01*
X227965000Y-204787500D02*
X227965000Y-200660000D01*
X226060000Y-205740000D02*
X227012500Y-205740000D01*
X231140000Y-251460000D02*
X229235000Y-251460000D01*
X231140000Y-251460000D02*
X233045000Y-251460000D01*
X231140000Y-256540000D02*
X233045000Y-256540000D01*
X233045000Y-256540000D02*
X233045000Y-251460000D01*
X229235000Y-251460000D02*
X229235000Y-233362500D01*
X229235000Y-233362500D02*
X227012500Y-231140000D01*
X226060000Y-226060000D02*
X227965000Y-226060000D01*
X227012500Y-231140000D02*
X227965000Y-230187500D01*
X227965000Y-230187500D02*
X227965000Y-226060000D01*
X226060000Y-231140000D02*
X227012500Y-231140000D01*
X231140000Y-276860000D02*
X229235000Y-276860000D01*
X231140000Y-276860000D02*
X233045000Y-276860000D01*
X231140000Y-281940000D02*
X233045000Y-281940000D01*
X233045000Y-281940000D02*
X233045000Y-276860000D01*
X229235000Y-276860000D02*
X229235000Y-258762500D01*
X229235000Y-258762500D02*
X227012500Y-256540000D01*
X226060000Y-251460000D02*
X227965000Y-251460000D01*
X227012500Y-256540000D02*
X227965000Y-255587500D01*
X227965000Y-255587500D02*
X227965000Y-251460000D01*
X226060000Y-256540000D02*
X227012500Y-256540000D01*
X256540000Y-99060000D02*
X254635000Y-99060000D01*
X254635000Y-99060000D02*
X254635000Y-80010000D01*
X254635000Y-80010000D02*
X253365000Y-78740000D01*
X251460000Y-73660000D02*
X253365000Y-73660000D01*
X251460000Y-78740000D02*
X253365000Y-78740000D01*
X253365000Y-78740000D02*
X253365000Y-73660000D01*
X256540000Y-124460000D02*
X258445000Y-124460000D01*
X256540000Y-129540000D02*
X258445000Y-129540000D01*
X258445000Y-129540000D02*
X258445000Y-124460000D01*
X256540000Y-149860000D02*
X258445000Y-149860000D01*
X256540000Y-154940000D02*
X258445000Y-154940000D01*
X258445000Y-154940000D02*
X258445000Y-149860000D01*
X256540000Y-175260000D02*
X258445000Y-175260000D01*
X256540000Y-180340000D02*
X258445000Y-180340000D01*
X258445000Y-180340000D02*
X258445000Y-175260000D01*
X256540000Y-200660000D02*
X258445000Y-200660000D01*
X256540000Y-205740000D02*
X258445000Y-205740000D01*
X258445000Y-205740000D02*
X258445000Y-200660000D01*
X256540000Y-226060000D02*
X258445000Y-226060000D01*
X256540000Y-231140000D02*
X258445000Y-231140000D01*
X258445000Y-231140000D02*
X258445000Y-226060000D01*
X256540000Y-251460000D02*
X258445000Y-251460000D01*
X256540000Y-256540000D02*
X258445000Y-256540000D01*
X258445000Y-256540000D02*
X258445000Y-251460000D01*
X256540000Y-281940000D02*
X258445000Y-281940000D01*
X258445000Y-281940000D02*
X258445000Y-278288700D01*
X258445000Y-278288700D02*
X257016300Y-276860000D01*
X251460000Y-251460000D02*
X253365000Y-251460000D01*
X252412500Y-256540000D02*
X253365000Y-255587500D01*
X253365000Y-255587500D02*
X253365000Y-251460000D01*
X252412500Y-256540000D02*
X253365000Y-256540000D01*
X251460000Y-256540000D02*
X252412500Y-256540000D01*
X257016300Y-276860000D02*
X253365000Y-273208700D01*
X253365000Y-273208700D02*
X253365000Y-256540000D01*
X256540000Y-276860000D02*
X257016300Y-276860000D01*
X281940000Y-99060000D02*
X280035000Y-99060000D01*
X281940000Y-99060000D02*
X283845000Y-99060000D01*
X281940000Y-104140000D02*
X283845000Y-104140000D01*
X283845000Y-104140000D02*
X283845000Y-99060000D01*
X280035000Y-99060000D02*
X280035000Y-80962500D01*
X280035000Y-80962500D02*
X277812500Y-78740000D01*
X276860000Y-73660000D02*
X278765000Y-73660000D01*
X277812500Y-78740000D02*
X278765000Y-77787500D01*
X278765000Y-77787500D02*
X278765000Y-73660000D01*
X276860000Y-78740000D02*
X277812500Y-78740000D01*
X281940000Y-124460000D02*
X280035000Y-124460000D01*
X281940000Y-124460000D02*
X283845000Y-124460000D01*
X281940000Y-129540000D02*
X283845000Y-129540000D01*
X283845000Y-129540000D02*
X283845000Y-124460000D01*
X280035000Y-124460000D02*
X280035000Y-106362500D01*
X280035000Y-106362500D02*
X277812500Y-104140000D01*
X276860000Y-99060000D02*
X278765000Y-99060000D01*
X277812500Y-104140000D02*
X278765000Y-103187500D01*
X278765000Y-103187500D02*
X278765000Y-99060000D01*
X276860000Y-104140000D02*
X277812500Y-104140000D01*
X281940000Y-149860000D02*
X280035000Y-149860000D01*
X281940000Y-149860000D02*
X283845000Y-149860000D01*
X281940000Y-154940000D02*
X283845000Y-154940000D01*
X283845000Y-154940000D02*
X283845000Y-149860000D01*
X280035000Y-149860000D02*
X280035000Y-131762500D01*
X280035000Y-131762500D02*
X277812500Y-129540000D01*
X276860000Y-124460000D02*
X278765000Y-124460000D01*
X277812500Y-129540000D02*
X278765000Y-128587500D01*
X278765000Y-128587500D02*
X278765000Y-124460000D01*
X276860000Y-129540000D02*
X277812500Y-129540000D01*
X281940000Y-175260000D02*
X280035000Y-175260000D01*
X281940000Y-175260000D02*
X283845000Y-175260000D01*
X281940000Y-180340000D02*
X283845000Y-180340000D01*
X283845000Y-180340000D02*
X283845000Y-175260000D01*
X280035000Y-175260000D02*
X280035000Y-157162500D01*
X280035000Y-157162500D02*
X277812500Y-154940000D01*
X276860000Y-149860000D02*
X278765000Y-149860000D01*
X277812500Y-154940000D02*
X278765000Y-153987500D01*
X278765000Y-153987500D02*
X278765000Y-149860000D01*
X276860000Y-154940000D02*
X277812500Y-154940000D01*
X281940000Y-200660000D02*
X280035000Y-200660000D01*
X281940000Y-200660000D02*
X283845000Y-200660000D01*
X281940000Y-205740000D02*
X283845000Y-205740000D01*
X283845000Y-205740000D02*
X283845000Y-200660000D01*
X280035000Y-200660000D02*
X280035000Y-182562500D01*
X280035000Y-182562500D02*
X277812500Y-180340000D01*
X276860000Y-175260000D02*
X278765000Y-175260000D01*
X277812500Y-180340000D02*
X278765000Y-179387500D01*
X278765000Y-179387500D02*
X278765000Y-175260000D01*
X276860000Y-180340000D02*
X277812500Y-180340000D01*
X281940000Y-226060000D02*
X280035000Y-226060000D01*
X281940000Y-226060000D02*
X283845000Y-226060000D01*
X281940000Y-231140000D02*
X283845000Y-231140000D01*
X283845000Y-231140000D02*
X283845000Y-226060000D01*
X280035000Y-226060000D02*
X280035000Y-207962500D01*
X280035000Y-207962500D02*
X277812500Y-205740000D01*
X276860000Y-200660000D02*
X278765000Y-200660000D01*
X277812500Y-205740000D02*
X278765000Y-204787500D01*
X278765000Y-204787500D02*
X278765000Y-200660000D01*
X276860000Y-205740000D02*
X277812500Y-205740000D01*
X281940000Y-251460000D02*
X280035000Y-251460000D01*
X281940000Y-251460000D02*
X283845000Y-251460000D01*
X281940000Y-256540000D02*
X283845000Y-256540000D01*
X283845000Y-256540000D02*
X283845000Y-251460000D01*
X280035000Y-251460000D02*
X280035000Y-233362500D01*
X280035000Y-233362500D02*
X277812500Y-231140000D01*
X276860000Y-226060000D02*
X278765000Y-226060000D01*
X277812500Y-231140000D02*
X278765000Y-230187500D01*
X278765000Y-230187500D02*
X278765000Y-226060000D01*
X276860000Y-231140000D02*
X277812500Y-231140000D01*
X281940000Y-276860000D02*
X280035000Y-276860000D01*
X281940000Y-276860000D02*
X283845000Y-276860000D01*
X281940000Y-281940000D02*
X283845000Y-281940000D01*
X283845000Y-281940000D02*
X283845000Y-276860000D01*
X280035000Y-276860000D02*
X280035000Y-258762500D01*
X280035000Y-258762500D02*
X277812500Y-256540000D01*
X276860000Y-251460000D02*
X278765000Y-251460000D01*
X277812500Y-256540000D02*
X278765000Y-255587500D01*
X278765000Y-255587500D02*
X278765000Y-251460000D01*
X276860000Y-256540000D02*
X277812500Y-256540000D01*
M02*
